<svg xmlns="http://www.w3.org/2000/svg" viewBox="0 0 132.62 82.96"><defs><style>.cls-1{fill:#707070;opacity:0.7;}</style></defs><g id="Layer_2" data-name="Layer 2"><g id="Layer_1-2" data-name="Layer 1"><path class="cls-1" d="M106.3.05c14-.69,25.79,13.29,26.31,31.23S122.18,64.35,108.17,65h0l-.31,0c-6.37.27-12.59-2.54-17.4-7.88l-2.08-2.31-.56,3.46c-1,6.07-5.59,11.93-13,16.49C67,79.57,56.87,82.44,46.22,82.89c-11,.47-18.88-1.59-24-6.29-4.14-3.77-6.59-9.29-7.72-17.39-.15-1-.27-2.05-.36-3-.68-7,.29-8.83.5-9.13s.16-.17.22-.17a1.76,1.76,0,0,1,1,.45,11.37,11.37,0,0,1,1.93,2.29,1.54,1.54,0,0,0,1.34.77,1.79,1.79,0,0,0,1.51-1.34,2.57,2.57,0,0,0-.33-2.27,15.25,15.25,0,0,0-2.72-2.93,13.33,13.33,0,0,0-9.75-3,19.15,19.15,0,0,0-2,.15c-.5,0-1,.09-1.5.11A9.1,9.1,0,0,1,.47,40.8C0,36.09,0,35.67,0,35.36c0-.53,0-1.07,0-1.6a4.26,4.26,0,0,1,3.32-4,.57.57,0,0,1,.38.07,1.15,1.15,0,0,1,.08.49,2.14,2.14,0,0,0,2.26,2.27c2.69-.11,10.45-3.82,14.61-6a19.56,19.56,0,0,1,8.06-2.53c4.42-.19,6.64,2.36,8.2,4.59a2.79,2.79,0,0,0-.16.87,2,2,0,0,0,1.34,2.08l.44.09a7.36,7.36,0,0,0,.86.11,2.08,2.08,0,0,0,1.29.42,2,2,0,0,0,1-.31c1,0,2.12,0,3.34-.06.56,0,1.57.05,2.46.12.69,0,1.35.1,1.85.11,2.75.57,5.05,1.07,6.85,1.49a19.28,19.28,0,0,0,3.39.84L61,34.34l.11-1.85a2.09,2.09,0,0,0-1.37-2.21l-.58-.17c-.55-.15-1.35-.36-2.31-.57A12.09,12.09,0,0,1,53,27.72c0-1.64.1-2.79,1.83-3.87a5.68,5.68,0,0,1,1.78-.25c4.71-.2,12.53,1.2,13.66,2.2A5.59,5.59,0,0,1,72.12,29c0,.11-.33.59-1.55,1-.93.12-1.94.31-3,.54l.4,4.08A16,16,0,0,0,71.11,34c.41,0,.81-.08,1.2-.09a10.39,10.39,0,0,1,8.44,3.35,16.23,16.23,0,0,0,2.49,2.66,4.11,4.11,0,0,1,.4.36l.08.08,2.13-3.08a1.9,1.9,0,0,0-.19-.21l-.56-.6c-.71-.76-1.38-1.49-2.07-2.17a8,8,0,0,1-.36-4.17,31.68,31.68,0,0,1,2-7.55A50.45,50.45,0,0,1,93.73,7.46C96.65,4.18,101.21.22,106.33,0"/></g></g></svg>