<svg xmlns="http://www.w3.org/2000/svg" viewBox="0 0 121.41 51.16"><defs><style>.cls-1{opacity:0.7;}.cls-2{fill:#707070;}</style></defs><g id="Layer_2" data-name="Layer 2"><g id="Layer_1-2" data-name="Layer 1"><g class="cls-1"><path class="cls-2" d="M51.84,33.32a8,8,0,0,0-6.17-3.07c-4,0-7.36,2.67-7.45,6H37c.09-3.63,3.22-6.61,7.23-7.17C44,26.54,42.83,24.66,41,23.93a6.23,6.23,0,0,0-6.45,1.45c-.8.79-7.72,3.1-10.33,4.39a8.28,8.28,0,0,0-4.35,7.28A5.76,5.76,0,0,0,24.58,43a4.13,4.13,0,0,0,4.84-2.9l1.14.4a5.32,5.32,0,0,1-5.19,3.8,6,6,0,0,1-1-.09A7,7,0,0,1,18.59,37a9.64,9.64,0,0,1,5.1-8.39,8.39,8.39,0,0,1,8.21.57,5.9,5.9,0,0,1,1.8-4.73,7.46,7.46,0,0,1,2.77-1.73c-1.91-3.13-1.78-6.41.42-8.91s5.5-3.22,7.76-1.9L44,13c-1.79-1-4.53-.32-6.29,1.64-.91,1-2.7,3.83-.08,7.78a6.81,6.81,0,0,1,3.76.33c1.36.56,3.59,2.13,4,6.28h.28a9.1,9.1,0,0,1,7.09,3.5,13,13,0,0,1,2.26,4.59l.36-13.73c.2-7.88-2.24-9.19-2.26-9.21l-.71-.35.52-.63a6.43,6.43,0,0,0,1.08-7A10.63,10.63,0,0,0,44.79,0c-3.43,0-6.3,2-8,5.77l-.48,1.12-.57-1.08C34.78,4,33.44,3,31.9,3c-2.28,0-4.38,2.14-4.69,4.83l-.12,1-.8-.51a5,5,0,0,0-2.54-.7,6.51,6.51,0,0,0-5,2.28,6.72,6.72,0,0,0-1.41,5.62l.1.76-1-.05a8,8,0,0,0-6,2.91,9.75,9.75,0,0,0-2.34,7.55l.1.8H8.13c.39,3.75,4.73,4.93,4.79,4.94l2.83.74s-8.37,1.36-4.85-.23c-2.57-1.41-4-3.44-4-5.57a4.91,4.91,0,0,0-4.34,2.25c-1.16,1.8-1.16,4.28-.08,6.8l.18.41-.32.3C.14,39.31-.53,42,.43,44.55A5.94,5.94,0,0,0,6.05,48.6c1.29,0,5.15-1.69,5.15-1.69l-.26,1.29a14.6,14.6,0,0,0,8.27,2.2c5.95.07,14.27.34,14.84.35,1.39-.1,5.22-.74,5.27-2.45l0-2,1.1,1.65c1.09,1.46,3.42,2.42,6,2.47h0a7.8,7.8,0,0,0,5.61-2,8.48,8.48,0,0,0,2.45-4.64C54.66,39.29,53.72,35.67,51.84,33.32Zm-35-6.48-1.2-.14c.12-1.93,1.57-3.74,4-5a7.58,7.58,0,0,1,7.32.47l.21.17-.72,1a6.24,6.24,0,0,0-6.09-.6l-.25.12C18.13,23.86,17,25.3,16.83,26.84Z"/><path class="cls-2" d="M66.82,43.74A8.25,8.25,0,0,0,69,48.44a7.58,7.58,0,0,0,5.5,2.11h0c2.6,0,5-.89,6.14-2.33l1.16-1.63,0,2c0,1.7,3.78,2.44,5.14,2.57.56,0,8.89-.09,14.84,0,5.68.06,7.52-1,8.11-1.56a.92.92,0,0,0,.29-.46L110,47.83l1.09.66a8.07,8.07,0,0,0,4,1.18,6.22,6.22,0,0,0,5.83-3.92,6.85,6.85,0,0,0-1.5-7.52l-.3-.31.19-.4c1.25-2.49,1.35-5,.29-6.8a4.86,4.86,0,0,0-4.24-2.41c-.35,3-2.15,6.89-6.24,6.13l-2.88-.54,2.87-.67s4.45-1.09,5-4.83H114l.14-.81A9.47,9.47,0,0,0,112.29,20,7.77,7.77,0,0,0,106.44,17l-1,0,.15-.75a6.65,6.65,0,0,0-1.14-5.65,6.32,6.32,0,0,0-4.84-2.39A5,5,0,0,0,97,8.86l-.83.48-.07-1c-.17-2.69-2.16-4.91-4.44-4.93-1.54,0-3,1-4,2.76L87,7.27l-.45-1.13C85,2.37,82.31.26,78.89.22a11.12,11.12,0,0,0-9.61,6,6.35,6.35,0,0,0,.78,7l.49.65-.73.34s-2.53,1.25-2.74,9.14l-.36,13.68a13.57,13.57,0,0,1,2.5-4.53,9.41,9.41,0,0,1,7.27-3.34h.28c.6-4.13,2.9-5.65,4.32-6.18a7,7,0,0,1,3.74-.21c2.83-3.87,1.21-6.71.32-7.77-1.63-2-4.34-2.79-6.2-1.78l-.55-1.09c2.32-1.26,5.68-.36,7.66,2.07s2,5.81,0,8.92a7.14,7.14,0,0,1,2.67,1.78,5.72,5.72,0,0,1,1.56,4.77,8.35,8.35,0,0,1,8.23-.38,9.27,9.27,0,0,1,4.66,8.49,7.25,7.25,0,0,1-6.11,7,7.17,7.17,0,0,1-1,.06A5.14,5.14,0,0,1,91,41l1.16-.36a4,4,0,0,0,4.69,3,6,6,0,0,0,5-5.8,8.14,8.14,0,0,0-4-7.38c-2.47-1.35-9.33-3.8-10.09-4.62a6.12,6.12,0,0,0-6.37-1.59c-1.91.72-3.19,2.54-3.52,5.11,4,.65,7,3.7,6.86,7.33H83.59c.09-3.38-3.12-6.17-7.13-6.22a8.19,8.19,0,0,0-6.32,2.92C68.09,35.67,67,39.26,66.82,43.74Zm35.57-20.08a6.41,6.41,0,0,0-6.16.2L96,24l-.66-1a7.52,7.52,0,0,1,7.29-.6l.27.14c2.33,1.28,3.67,3.1,3.71,5l-1.2.1C105.38,26.13,104.27,24.67,102.39,23.66Z"/></g></g></g></svg>