<svg id="Layer_1" data-name="Layer 1" xmlns="http://www.w3.org/2000/svg" viewBox="0 0 106.71 25.76"><path d="M106.71,7.6a13.38,13.38,0,0,1-4.25,2.25c-.24-.23-.5-.48-.78-.73A6.39,6.39,0,0,0,104,5.18a13.16,13.16,0,0,1-4.25,2.37c-.33-.25-.68-.51-1-.76a6.49,6.49,0,0,0,2.62-3.9S98,5.45,96,5.09l-.08,0a6.41,6.41,0,0,0,1.48-4A14.05,14.05,0,0,1,93.8,4c-.39-.18-.8-.36-1.21-.52A6.45,6.45,0,0,0,94.22,0,13,13,0,0,1,90,2.53a30.76,30.76,0,0,0-9-1.31c-17,0-23.47,10.33-23.74,10.77a1.93,1.93,0,0,0,.12,2.18A30.5,30.5,0,0,0,80.65,24.76c17,0,23.47-10.33,23.74-10.77a1.91,1.91,0,0,0-.12-2.18l-.17-.22A6.42,6.42,0,0,0,106.71,7.6ZM77.48,20.72a27.4,27.4,0,0,1-16.06-7.84c1.83-2.16,6.73-6.69,16.08-7.63a8.43,8.43,0,0,0,0,15.47Zm6.69,0a8.43,8.43,0,0,0,4.79-10,3.13,3.13,0,1,1-2.49-4A8.4,8.4,0,0,0,84.2,5.26a27.44,27.44,0,0,1,16.06,7.84C98.43,15.26,93.52,19.79,84.17,20.73Z"/><path d="M2.61,12.59l-.17.22A1.91,1.91,0,0,0,2.32,15c.26.44,6.77,10.77,23.73,10.77A30.5,30.5,0,0,0,49.31,15.17,2,2,0,0,0,49.43,13c-.27-.44-6.78-10.77-23.74-10.77a30.71,30.71,0,0,0-9,1.31A13.13,13.13,0,0,1,12.48,1a6.45,6.45,0,0,0,1.64,3.45c-.42.16-.82.34-1.21.52A13.86,13.86,0,0,1,9.29,2a6.3,6.3,0,0,0,1.48,4l-.09,0c-1.93.36-5.33-2.2-5.33-2.2A6.4,6.4,0,0,0,8,7.79c-.37.25-.72.51-1,.76A13.29,13.29,0,0,1,2.67,6.18,6.44,6.44,0,0,0,5,10.12c-.29.25-.55.5-.78.73A13.38,13.38,0,0,1,0,8.6,6.42,6.42,0,0,0,2.61,12.59Zm31.46-.53a8.4,8.4,0,0,0-4.86-5.81c9.35.94,14.25,5.47,16.08,7.63a27.44,27.44,0,0,1-16.06,7.84A8.43,8.43,0,0,0,34.07,12.06Zm-27.62,2A27.44,27.44,0,0,1,22.51,6.26a8.25,8.25,0,0,0-2.27,1.46,3.13,3.13,0,1,1-2.49,4,8.43,8.43,0,0,0,4.79,10C13.19,20.79,8.28,16.26,6.45,14.1Z"/></svg>