<svg xmlns="http://www.w3.org/2000/svg" viewBox="0 0 178.16 35.58"><defs><style>.cls-1{fill:#707070;opacity:0.7;}</style></defs><g id="Layer_2" data-name="Layer 2"><g id="Layer_1-2" data-name="Layer 1"><path class="cls-1" d="M134.76,35.58A57.42,57.42,0,0,1,100.09,18C104.07,13,114.71,2.6,135,.32,125.69,4.6,121.4,16,125.36,25.66a18.48,18.48,0,0,0,9.45,9.92Z"/><path class="cls-1" d="M153.93,13.24A18.62,18.62,0,0,0,143.56,0c20.21,2.14,30.7,12.47,34.6,17.39a59,59,0,0,1-34.93,17.87A19.7,19.7,0,0,0,153.93,13.24Z"/><path class="cls-1" d="M34.68,35.35A57.47,57.47,0,0,1,0,17.72C4,12.77,14.62,2.37,34.86.08,25.6,4.37,21.31,15.71,25.28,25.42a18.45,18.45,0,0,0,9.44,9.93Z"/><path class="cls-1" d="M55.85,13.24A18.68,18.68,0,0,0,45.47,0c20.21,2.14,30.7,12.47,34.61,17.39A59,59,0,0,1,45.14,35.26,19.72,19.72,0,0,0,55.85,13.24Z"/></g></g></svg>