<?xml version="1.0" encoding="utf-8"?>
<!-- Generator: Adobe Illustrator 25.2.0, SVG Export Plug-In . SVG Version: 6.00 Build 0)  -->
<svg version="1.1" id="Layer_1" xmlns="http://www.w3.org/2000/svg" xmlns:xlink="http://www.w3.org/1999/xlink" x="0px" y="0px"
	 viewBox="0 0 131 428.6" style="enable-background:new 0 0 131 428.6;" xml:space="preserve">
<style type="text/css">
	.st0{fill:#FFFFFF;stroke:#231F20;stroke-miterlimit:10;}
	.st1{display:none;fill:#231F20;stroke:#96DAF8;stroke-miterlimit:10;}
</style>
<path class="st0" d="M74.1,5.7c15,1.5,22,17.5,22,17.5c6.6,15.2,6.6,37.3,6.6,37.3c-0.1,5,1.9,9.8,3.3,12.8c0.8,1.5,2,2.8,3.4,3.9
	c7.4,5.5,8.7,23.6,8.7,23.6c-0.3,12.3,2,43,2,43c0.6,10.7,5.9,29.6,5.9,29.6c4.2,13.8,2.7,39.3,2.7,39.3c-0.2,6.5,1.7,16.6,1.7,16.6
	c0.9,10.4-4.9,18-4.9,18c-4.2,6.3-6.6,6.5-6.6,6.5c-4-2.2-1.1-7.6-1.1-7.6c2.6-3.1,5-9.5,5-9.5c1.8-3.4-3.7-6.9-3.7-6.9
	c-2.5,3.7-6.6,7-6.6,7c-2.5-4.5-0.9-9.2-0.9-9.2c2.6-6.9,6.4-11.5,6.4-11.5c5.9-7.4,0.7-20.1,0.7-20.1
	c-8.2-12.1-12.8-30.3-12.8-30.3c-2.9-9.3-3.5-30.9-3.5-30.9c1.5-11.3,0-25.5,0-25.5c1.9,11.8-4.2,32-4.2,32
	c-3.8,9.1-1.8,16.2-0.9,18.5c0.2,0.6,0.4,1.1,0.6,1.7c2.3,6.9,7.4,14.3,7.4,14.3c10.6,12.7,8.8,41.4,8.8,41.4
	c0.4,18-8.3,40.9-8.3,40.9c-11.1,31.8-9.6,48.6-9.6,48.6L96,351.2c0.2,16.2-5.4,33.2-5.4,33.2c-2.5,8.6-0.6,18.8-0.6,18.8
	c0.8,4.1,2.5,7.4,4.3,9.9c1.7,2.5,4.2,4.5,7,6c5.3,2.9,5.3,7.1,5.3,7.1c-2.9,3.8-18.8,1-18.8,1c-8.6-2.8-14.7-10.6-14.7-10.6
	c-0.3-2.1,0.5-4,1.3-5.2c1.1-1.7,1.8-3.7,1.8-5.7c0.4-12.3-3.1-30.9-3.1-30.9c-3.7-11.9-2.3-34.4-1.3-45.4c0.3-3,1-6,1.9-8.9
	c1.5-4.8,0-11.3-1.4-15.8c-1.5-4.8-2.3-9.7-2.5-14.6c-0.3-9.2-0.1-17.9-0.1-17.9c0.1-9.6-5.3-33.4-5.3-33.4
	c-3.5,18-3.8,32.7-3.8,32.7c1,14.3-1.3,29-1.3,29c-0.2,1.7-1,3.9-1.9,5.9c-1.7,3.6-2.4,7.6-2.2,11.5c0.5,10.9,0.2,20.5-0.1,27.2
	c-0.3,5.6-1.2,11.2-2.7,16.7c-3.2,11.8-4.2,19.8-4.5,24.5c-0.2,2.7,0.2,5.3,1.2,7.8c3.6,9.3,0.9,18.9-1,23.5
	c-0.7,1.8-1.3,3.7-1.7,5.6c-1.2,5.5-4.4,4.4-4.4,4.4l-16,0.6c-2.1-0.3-2.9-1.5-3.2-2.7c-0.4-1.7,0.4-3.4,1.8-4.6
	c4-3.3,8.4-10.2,8.4-10.2c3.1-5,2-14,0.4-20.7c-2.7-11.5-4.7-23.2-5.9-35c-0.2-1.6-0.3-3.1-0.5-4.6c-1.2-11.6,0.1-23.4,3.7-34.6
	c0.4-1.2,0.6-1.9,0.6-1.9c3.2-11.3-5.8-39.6-5.8-39.6c-4.7-13.5-5.9-33.3-5.9-33.3c-6.9-24.9-3.1-47.1-3.1-47.1
	c4.9-15.7,12.7-26.7,12.7-26.7c4.6-5.2,6.2-11.6,6.6-16.9c0.4-4.9-0.9-9.7-3.4-14c-4.8-8.4-6-22.5-6-22.5c0.4,9.1-4.7,44.1-4.7,44.1
	c0.8,13.2-4.8,36.9-4.8,36.9c-4.9,16.6,4.6,34.2,4.6,34.2c6.4,13.7,1,12.5,1,12.5c-6.4-9.4-7.6-1.5-7.6-1.5
	c-0.1,9.7,5.3,18.8,5.3,18.8c-8.3-0.7-17.8-10.5-17.8-10.5c-3.4-2.5-0.6-12.1-0.6-12.1c4.4-12.4,0.3-36.4,0.3-36.4
	c-1.7-12.8,5.7-40.4,5.7-40.4c3.4-11.9,0.8-34.4,0.8-34.4c-3.1-23.6,1.1-33.6,1.1-33.6c3.8-7.7,10.3-15.1,10.3-15.1
	c5.6-6.9,8.4-31.8,8.4-31.8c2.3-18.8,13-30,13-30c5.4-7,12-10.7,16.2-12.5c3.4-1.5,7.2-1.8,10.8-0.7C73.2,2.6,74.1,5.7,74.1,5.7z"/>
<path class="st1" d="M288.6,5.7c15,1.5,22,17.5,22,17.5c6.6,15.2,6.6,37.3,6.6,37.3c-0.1,5,1.9,9.8,3.3,12.8c0.8,1.5,2,2.8,3.4,3.9
	c7.4,5.5,8.7,23.6,8.7,23.6c-0.3,12.3,2,43,2,43c0.6,10.7,5.9,29.6,5.9,29.6c4.2,13.8,2.7,39.3,2.7,39.3c-0.2,6.5,1.7,16.6,1.7,16.6
	c0.9,10.4-4.9,18-4.9,18c-4.2,6.3-6.6,6.5-6.6,6.5c-4-2.2-1.1-7.6-1.1-7.6c2.6-3.1,5-9.5,5-9.5c1.8-3.4-3.7-6.9-3.7-6.9
	c-2.5,3.7-6.6,7-6.6,7c-2.5-4.5-0.9-9.2-0.9-9.2c2.6-6.9,6.4-11.5,6.4-11.5c5.9-7.4,0.7-20.1,0.7-20.1
	c-8.2-12.1-12.8-30.3-12.8-30.3c-2.9-9.3-3.5-30.9-3.5-30.9c1.5-11.3,0-25.5,0-25.5c1.9,11.8-4.2,32-4.2,32
	c-3.8,9.1-1.8,16.2-0.9,18.5c0.2,0.6,0.4,1.1,0.6,1.7c2.3,6.9,7.4,14.3,7.4,14.3c10.6,12.7,8.8,41.4,8.8,41.4
	c0.4,18-8.3,40.9-8.3,40.9c-11.1,31.8-9.6,48.6-9.6,48.6l-0.2,44.5c0.2,16.2-5.4,33.2-5.4,33.2c-2.5,8.6-0.6,18.8-0.6,18.8
	c0.8,4.1,2.5,7.4,4.3,9.9c1.7,2.5,4.2,4.5,7,6c5.3,2.9,5.3,7.1,5.3,7.1c-2.9,3.8-18.8,1-18.8,1c-8.6-2.8-14.7-10.6-14.7-10.6
	c-0.3-2.1,0.5-4,1.3-5.2c1.1-1.7,1.8-3.7,1.8-5.7c0.4-12.3-3.1-30.9-3.1-30.9c-3.7-11.9-2.3-34.4-1.3-45.4c0.3-3,1-6,1.9-8.9
	c1.5-4.8,0-11.3-1.4-15.8c-1.5-4.8-2.3-9.7-2.5-14.6c-0.3-9.2-0.1-17.9-0.1-17.9c0.1-9.6-5.3-33.4-5.3-33.4
	c-3.5,18-3.8,32.7-3.8,32.7c1,14.3-1.3,29-1.3,29c-0.2,1.7-1,3.9-1.9,5.9c-1.7,3.6-2.4,7.6-2.2,11.5c0.5,10.9,0.2,20.5-0.1,27.2
	c-0.3,5.6-1.2,11.2-2.7,16.7c-3.2,11.8-4.2,19.8-4.5,24.5c-0.2,2.7,0.2,5.3,1.2,7.8c3.6,9.3,0.9,18.9-1,23.5
	c-0.7,1.8-1.3,3.7-1.7,5.6c-1.2,5.5-4.4,4.4-4.4,4.4l-16,0.6c-2.1-0.3-2.9-1.5-3.2-2.7c-0.4-1.7,0.4-3.4,1.8-4.6
	c4-3.3,8.4-10.2,8.4-10.2c3.1-5,2-14,0.4-20.7c-2.7-11.5-4.7-23.2-5.9-35c-0.2-1.6-0.3-3.1-0.5-4.6c-1.2-11.6,0.1-23.4,3.7-34.6
	c0.4-1.2,0.6-1.9,0.6-1.9c3.2-11.3-5.8-39.6-5.8-39.6c-4.7-13.5-5.9-33.3-5.9-33.3c-6.9-24.9-3.1-47.1-3.1-47.1
	c4.9-15.7,12.7-26.7,12.7-26.7c4.6-5.2,6.2-11.6,6.6-16.9c0.4-4.9-0.9-9.7-3.4-14c-4.8-8.4-6-22.5-6-22.5c0.4,9.1-4.7,44.1-4.7,44.1
	c0.8,13.2-4.8,36.9-4.8,36.9c-4.9,16.6,4.6,34.2,4.6,34.2c6.4,13.7,1,12.5,1,12.5c-6.4-9.4-7.6-1.5-7.6-1.5
	c-0.1,9.7,5.3,18.8,5.3,18.8c-8.3-0.7-17.8-10.5-17.8-10.5c-3.4-2.5-0.6-12.1-0.6-12.1c4.4-12.4,0.3-36.4,0.3-36.4
	c-1.7-12.8,5.7-40.4,5.7-40.4c3.4-11.9,0.8-34.4,0.8-34.4c-3.1-23.6,1.1-33.6,1.1-33.6c3.8-7.7,10.3-15.1,10.3-15.1
	c5.6-6.9,8.4-31.8,8.4-31.8c2.3-18.8,13-30,13-30c5.4-7,12-10.7,16.2-12.5c3.4-1.5,7.2-1.8,10.8-0.7C287.7,2.6,288.6,5.7,288.6,5.7z
	"/>
</svg>
