<?xml version="1.0" encoding="utf-8"?>
<!-- Generator: Adobe Illustrator 25.1.0, SVG Export Plug-In . SVG Version: 6.00 Build 0)  -->
<svg version="1.1" xmlns="http://www.w3.org/2000/svg" xmlns:xlink="http://www.w3.org/1999/xlink" x="0px" y="0px"
	 viewBox="0 0 142.6 428.6" style="enable-background:new 0 0 142.6 428.6;" xml:space="preserve">
<style type="text/css">
	.st0{display:none;}
	.st1{display:inline;fill:#FFFFFF;stroke:#231F20;stroke-miterlimit:10;}
	.st2{fill:#231F20;stroke:#96DAF8;stroke-miterlimit:10;}
</style>
<g id="Layer_1" class="st0">
	<path class="st1" d="M-32.6,5.7c13.6,1.5,20,17.5,20,17.5c6,15.2,6,37.3,6,37.3c-0.1,5,1.7,9.8,3,12.8c0.7,1.5,1.8,2.8,3.1,3.9
		c6.8,5.5,7.9,23.6,7.9,23.6c-0.3,12.3,1.8,43,1.8,43c0.5,10.7,5.4,29.6,5.4,29.6c3.9,13.8,2.4,39.3,2.4,39.3
		c-0.2,6.5,1.5,16.6,1.5,16.6c0.8,10.4-4.5,18-4.5,18c-3.9,6.3-6,6.5-6,6.5c-3.7-2.2-1-7.6-1-7.6c2.3-3.1,4.6-9.5,4.6-9.5
		c1.6-3.4-3.4-6.9-3.4-6.9c-2.2,3.7-6,7-6,7c-2.2-4.5-0.8-9.2-0.8-9.2c2.3-6.9,5.8-11.5,5.8-11.5c5.4-7.4,0.6-20.1,0.6-20.1
		C0.6,184-3.7,165.8-3.7,165.8c-2.6-9.3-3.2-30.9-3.2-30.9c1.4-11.3,0-25.5,0-25.5c1.7,11.8-3.8,32-3.8,32
		c-3.5,9.1-1.6,16.2-0.8,18.5c0.2,0.6,0.4,1.1,0.6,1.7c2.1,6.9,6.8,14.3,6.8,14.3c9.7,12.7,8,41.4,8,41.4c0.3,18-7.5,40.9-7.5,40.9
		c-10.1,31.8-8.8,48.6-8.8,48.6l-0.2,44.5c0.2,16.2-4.9,33.2-4.9,33.2c-2.2,8.6-0.5,18.8-0.5,18.8c0.7,4.1,2.3,7.4,3.9,9.9
		c1.6,2.5,3.8,4.5,6.3,6c4.8,2.9,4.8,7.1,4.8,7.1c-2.6,3.8-17.1,1-17.1,1c-7.8-2.8-13.4-10.6-13.4-10.6c-0.3-2.1,0.4-4,1.1-5.2
		c1-1.7,1.6-3.7,1.7-5.7c0.3-12.3-2.8-30.9-2.8-30.9c-3.4-11.9-2.1-34.4-1.2-45.4c0.3-3,0.9-6,1.7-8.9c1.3-4.8,0-11.3-1.3-15.8
		c-1.4-4.8-2.1-9.7-2.3-14.6c-0.3-9.2-0.1-17.9-0.1-17.9c0.1-9.6-4.8-33.4-4.8-33.4c-3.2,18-3.5,32.7-3.5,32.7
		c0.9,14.3-1.2,29-1.2,29c-0.2,1.7-0.9,3.9-1.7,5.9c-1.5,3.6-2.2,7.6-2,11.5c0.5,10.9,0.2,20.5-0.1,27.2c-0.3,5.6-1.1,11.2-2.5,16.7
		c-2.9,11.8-3.8,19.8-4.1,24.5c-0.1,2.7,0.2,5.3,1.1,7.8c3.3,9.3,0.8,18.9-0.9,23.5c-0.7,1.8-1.2,3.7-1.6,5.6c-1.1,5.5-4,4.4-4,4.4
		l-14.6,0.6c-1.9-0.3-2.7-1.5-2.9-2.7c-0.3-1.7,0.3-3.4,1.6-4.6c3.7-3.3,7.6-10.2,7.6-10.2c2.9-5,1.8-14,0.4-20.7
		c-2.4-11.5-4.3-23.2-5.4-35c-0.2-1.6-0.3-3.1-0.4-4.6c-1-11.6,0.1-23.4,3.4-34.6c0.4-1.2,0.6-1.9,0.6-1.9c3-11.3-5.3-39.6-5.3-39.6
		c-4.3-13.5-5.4-33.3-5.4-33.3c-6.3-24.9-2.8-47.1-2.8-47.1c4.5-15.7,11.6-26.7,11.6-26.7c4.2-5.2,5.6-11.6,6-16.9
		c0.4-4.9-0.8-9.7-3.1-14c-4.4-8.4-5.5-22.5-5.5-22.5c0.4,9.1-4.3,44.1-4.3,44.1c0.7,13.2-4.4,36.9-4.4,36.9
		c-4.5,16.6,4.2,34.2,4.2,34.2c5.8,13.7,0.9,12.5,0.9,12.5c-5.8-9.4-6.9-1.5-6.9-1.5c-0.1,9.7,4.8,18.8,4.8,18.8
		c-7.5-0.7-16.2-10.5-16.2-10.5c-3.1-2.5-0.5-12.1-0.5-12.1c4-12.4,0.3-36.4,0.3-36.4c-1.5-12.8,5.2-40.4,5.2-40.4
		c3.1-11.9,0.7-34.4,0.7-34.4c-2.8-23.6,1-33.6,1-33.6c3.5-7.7,9.4-15.1,9.4-15.1c5.1-6.9,7.6-31.8,7.6-31.8
		c2.1-18.8,11.8-30,11.8-30c4.9-7,10.9-10.7,14.8-12.5c3.1-1.5,6.6-1.8,9.8-0.7C-33.5,2.6-32.6,5.7-32.6,5.7z"/>
</g>
<g id="Layer_2">
	<path class="st2" d="M80.7,5.7c16.3,1.5,24,17.5,24,17.5c7.2,15.2,7.2,37.3,7.2,37.3c-0.1,5,2,9.8,3.6,12.8
		c0.8,1.5,2.2,2.8,3.7,3.9c8.1,5.5,9.5,23.6,9.5,23.6c-0.4,12.3,2.2,43,2.2,43c0.6,10.7,6.5,29.6,6.5,29.6
		c4.6,13.8,2.9,39.3,2.9,39.3c-0.2,6.5,1.8,16.6,1.8,16.6c1,10.4-5.4,18-5.4,18c-4.6,6.3-7.2,6.5-7.2,6.5c-4.4-2.2-1.2-7.6-1.2-7.6
		c2.8-3.1,5.5-9.5,5.5-9.5c1.9-3.4-4-6.9-4-6.9c-2.7,3.7-7.2,7-7.2,7c-2.7-4.5-1-9.2-1-9.2c2.8-6.9,6.9-11.5,6.9-11.5
		c6.5-7.4,0.7-20.1,0.7-20.1c-8.9-12.1-14-30.3-14-30.3c-3.2-9.3-3.8-30.9-3.8-30.9c1.7-11.3,0-25.5,0-25.5c2,11.8-4.6,32-4.6,32
		c-4.2,9.1-1.9,16.2-1,18.5c0.2,0.6,0.5,1.1,0.7,1.7c2.5,6.9,8.1,14.3,8.1,14.3c11.6,12.7,9.6,41.4,9.6,41.4c0.4,18-9,40.9-9,40.9
		c-12.1,31.8-10.5,48.6-10.5,48.6l-0.2,44.5c0.2,16.2-5.8,33.2-5.8,33.2c-2.7,8.6-0.6,18.8-0.6,18.8c0.9,4.1,2.8,7.4,4.6,9.9
		c1.9,2.5,4.6,4.5,7.6,6c5.8,2.9,5.8,7.1,5.8,7.1c-3.2,3.8-20.5,1-20.5,1c-9.4-2.8-16.1-10.6-16.1-10.6c-0.3-2.1,0.5-4,1.4-5.2
		c1.2-1.7,1.9-3.7,2-5.7c0.4-12.3-3.4-30.9-3.4-30.9c-4.1-11.9-2.5-34.4-1.4-45.4c0.3-3,1.1-6,2.1-8.9c1.6-4.8,0-11.3-1.6-15.8
		c-1.7-4.8-2.5-9.7-2.7-14.6c-0.4-9.2-0.1-17.9-0.1-17.9c0.1-9.6-5.7-33.4-5.7-33.4c-3.8,18-4.1,32.7-4.1,32.7
		c1.1,14.3-1.5,29-1.5,29c-0.2,1.7-1.1,3.9-2.1,5.9c-1.8,3.6-2.6,7.6-2.4,11.5c0.6,10.9,0.3,20.5-0.2,27.2c-0.4,5.6-1.3,11.2-3,16.7
		c-3.5,11.8-4.6,19.8-4.9,24.5c-0.2,2.7,0.2,5.3,1.3,7.8c4,9.3,0.9,18.9-1.1,23.5c-0.8,1.8-1.4,3.7-1.9,5.6
		c-1.4,5.5-4.8,4.4-4.8,4.4l-17.4,0.6c-2.3-0.3-3.2-1.5-3.5-2.7c-0.4-1.7,0.4-3.4,1.9-4.6c4.4-3.3,9.1-10.2,9.1-10.2
		c3.4-5,2.2-14,0.4-20.7c-2.9-11.5-5.1-23.2-6.5-35c-0.2-1.6-0.4-3.1-0.5-4.6c-1.3-11.6,0.1-23.4,4-34.6c0.4-1.2,0.7-1.9,0.7-1.9
		c3.5-11.3-6.3-39.6-6.3-39.6C22.4,260.7,21,241,21,241c-7.5-24.9-3.4-47.1-3.4-47.1c5.4-15.7,13.9-26.7,13.9-26.7
		c5-5.2,6.8-11.6,7.2-16.9c0.4-4.9-1-9.7-3.7-14c-5.3-8.4-6.6-22.5-6.6-22.5c0.5,9.1-5.1,44.1-5.1,44.1c0.9,13.2-5.2,36.9-5.2,36.9
		c-5.4,16.6,5,34.2,5,34.2c6.9,13.7,1.1,12.5,1.1,12.5c-6.9-9.4-8.3-1.5-8.3-1.5c-0.1,9.7,5.7,18.8,5.7,18.8
		c-9-0.7-19.4-10.5-19.4-10.5c-3.7-2.5-0.6-12.1-0.6-12.1c4.7-12.4,0.4-36.4,0.4-36.4c-1.8-12.8,6.2-40.4,6.2-40.4
		c3.7-11.9,0.9-34.4,0.9-34.4c-3.4-23.6,1.2-33.6,1.2-33.6c4.1-7.7,11.2-15.1,11.2-15.1c6.1-6.9,9.1-31.8,9.1-31.8
		c2.6-18.8,14.1-30,14.1-30c5.9-7,13.1-10.7,17.6-12.5c3.7-1.5,7.9-1.8,11.7-0.7C79.7,2.6,80.7,5.7,80.7,5.7z"/>
</g>
</svg>
