<svg xmlns="http://www.w3.org/2000/svg" viewBox="0 0 139.47 433.11"><defs><style>.cls-1,.cls-5,.cls-6{fill:#fff;}.cls-1{stroke:#231f20;stroke-width:2px;}.cls-1,.cls-2,.cls-3,.cls-6,.cls-7,.cls-8{stroke-miterlimit:10;}.cls-2,.cls-8{fill:none;}.cls-2,.cls-6,.cls-8{stroke:#000;}.cls-3,.cls-4{fill:#1a1a1a;}.cls-3,.cls-7{stroke:#fff;}.cls-3,.cls-8{stroke-width:0.5px;}</style></defs><g id="Layer_1" data-name="Layer 1"><path class="cls-1" d="M78.54,9.05c15,1.5,22,17.5,22,17.5,6.6,15.2,6.6,37.3,6.6,37.3-.1,5,1.9,9.8,3.3,12.8a12.61,12.61,0,0,0,3.4,3.9c7.4,5.5,8.7,23.6,8.7,23.6-.3,12.3,2,43,2,43,.6,10.7,5.9,29.6,5.9,29.6,4.2,13.8,2.7,39.3,2.7,39.3-.2,6.5,1.7,16.6,1.7,16.6a28.14,28.14,0,0,1-4.9,18c-4.2,6.3-6.6,6.5-6.6,6.5-4-2.2-1.1-7.6-1.1-7.6,2.6-3.1,5-9.5,5-9.5,1.8-3.4-3.7-6.9-3.7-6.9a38,38,0,0,1-6.6,7,12.37,12.37,0,0,1-.9-9.2,44.37,44.37,0,0,1,6.4-11.5c5.9-7.4.7-20.1.7-20.1-8.2-12.1-12.8-30.3-12.8-30.3-2.9-9.3-3.5-30.9-3.5-30.9,1.5-11.3,0-25.5,0-25.5,1.9,11.8-4.2,32-4.2,32-3.8,9.1-1.8,16.2-.9,18.5.2.6.4,1.1.6,1.7,2.3,6.9,7.4,14.3,7.4,14.3,10.6,12.7,8.8,41.4,8.8,41.4.4,18-8.3,40.9-8.3,40.9-11.1,31.8-9.6,48.6-9.6,48.6l-.2,44.5c.2,16.2-5.4,33.2-5.4,33.2-2.5,8.6-.6,18.8-.6,18.8a25.14,25.14,0,0,0,4.3,9.9,19.48,19.48,0,0,0,7,6c5.3,2.9,5.3,7.1,5.3,7.1-2.9,3.8-18.8,1-18.8,1-8.6-2.8-14.7-10.6-14.7-10.6a7.64,7.64,0,0,1,1.3-5.2,10.67,10.67,0,0,0,1.8-5.7c.4-12.3-3.1-30.9-3.1-30.9-3.7-11.9-2.3-34.4-1.3-45.4a45.55,45.55,0,0,1,1.9-8.9c1.5-4.8,0-11.3-1.4-15.8a56.58,56.58,0,0,1-2.5-14.6c-.3-9.2-.1-17.9-.1-17.9.1-9.6-5.3-33.4-5.3-33.4a213.81,213.81,0,0,0-3.8,32.7,148.55,148.55,0,0,1-1.3,29,22.32,22.32,0,0,1-1.9,5.9,24.13,24.13,0,0,0-2.2,11.5c.5,10.9.2,20.5-.1,27.2a79.68,79.68,0,0,1-2.7,16.7c-3.2,11.8-4.2,19.8-4.5,24.5a17.29,17.29,0,0,0,1.2,7.8c3.6,9.3.9,18.9-1,23.5a36.18,36.18,0,0,0-1.7,5.6c-1.2,5.5-4.4,4.4-4.4,4.4l-16,.6a3.46,3.46,0,0,1-3.2-2.7,4.72,4.72,0,0,1,1.8-4.6c4-3.3,8.4-10.2,8.4-10.2,3.1-5,2-14,.4-20.7a274.93,274.93,0,0,1-5.9-35c-.2-1.6-.3-3.1-.5-4.6a84.72,84.72,0,0,1,3.7-34.6c.4-1.2.6-1.9.6-1.9,3.2-11.3-5.8-39.6-5.8-39.6-4.7-13.5-5.9-33.3-5.9-33.3a120,120,0,0,1-3.1-47.1,104.84,104.84,0,0,1,12.7-26.7c4.6-5.2,6.2-11.6,6.6-16.9a23.93,23.93,0,0,0-3.4-14c-4.8-8.4-6-22.5-6-22.5.4,9.1-4.7,44.1-4.7,44.1.8,13.2-4.8,36.9-4.8,36.9-4.9,16.6,4.6,34.2,4.6,34.2,6.4,13.7,1,12.5,1,12.5-6.4-9.4-7.6-1.5-7.6-1.5-.1,9.7,5.3,18.8,5.3,18.8-8.3-.7-17.8-10.5-17.8-10.5-3.4-2.5-.6-12.1-.6-12.1,4.4-12.4.3-36.4.3-36.4-1.7-12.8,5.7-40.4,5.7-40.4,3.4-11.9.8-34.4.8-34.4-3.1-23.6,1.1-33.6,1.1-33.6a81.81,81.81,0,0,1,10.3-15.1c5.6-6.9,8.4-31.8,8.4-31.8a56.31,56.31,0,0,1,13-30A41,41,0,0,1,62,5.35a15.46,15.46,0,0,1,10.8-.7C77.64,6,78.54,9.05,78.54,9.05Z"/></g><g id="Layer_2" data-name="Layer 2"><path class="cls-2" d="M67.63,28.79a2.32,2.32,0,0,0-1.81-.87,2,2,0,0,0-2.11,1.79h-.35a2.26,2.26,0,0,1,2-2.12,1.71,1.71,0,0,0-1-1.52,1.75,1.75,0,0,0-1.85.45c-.23.23-2.21.93-3,1.31A2.42,2.42,0,0,0,58.4,30a1.72,1.72,0,0,0,1.42,1.71,1.18,1.18,0,0,0,1.38-.86l.33.11a1.51,1.51,0,0,1-1.47,1.13l-.29,0A2.08,2.08,0,0,1,58.05,30a2.8,2.8,0,0,1,1.41-2.47,2.4,2.4,0,0,1,2.38.14,1.7,1.7,0,0,1,.48-1.39,2.15,2.15,0,0,1,.79-.51,2.11,2.11,0,0,1,0-2.61,1.85,1.85,0,0,1,2.23-.58l-.17.31a1.51,1.51,0,0,0-1.8.5,1.78,1.78,0,0,0,0,2.28,2,2,0,0,1,1.09.08,2,2,0,0,1,1.19,1.83h.08a2.67,2.67,0,0,1,2.08,1,3.8,3.8,0,0,1,.68,1.33v-4c0-2.3-.71-2.68-.72-2.68l-.21-.11.15-.18a1.88,1.88,0,0,0,.28-2.05,3.16,3.16,0,0,0-2.73-1.79,2.44,2.44,0,0,0-2.26,1.71l-.14.33-.17-.31A1.36,1.36,0,0,0,61.64,20a1.48,1.48,0,0,0-1.32,1.43l0,.28-.24-.15a1.47,1.47,0,0,0-.73-.19A1.85,1.85,0,0,0,57.9,22a2,2,0,0,0-.37,1.65l0,.22h-.29a2.29,2.29,0,0,0-1.72.87A2.84,2.84,0,0,0,55,27l0,.23h0c.14,1.1,1.4,1.43,1.41,1.43l.83.21s-2.41.42-1.4-.06a2,2,0,0,1-1.19-1.61,1.41,1.41,0,0,0-1.25.68,2.12,2.12,0,0,0,0,2l.05.12-.09.09a2,2,0,0,0-.49,2.19,1.76,1.76,0,0,0,1.65,1.17A6.43,6.43,0,0,0,56,32.9l-.06.37a4,4,0,0,0,2.4.61c1.73,0,4.13.06,4.29.06.4,0,1.51-.24,1.51-.73v-.58l.32.47a2.28,2.28,0,0,0,1.76.7h0a2.28,2.28,0,0,0,1.61-.6,2.5,2.5,0,0,0,.67-1.36A4.86,4.86,0,0,0,67.63,28.79ZM57.47,27l-.34,0a1.86,1.86,0,0,1,1.11-1.47,2.13,2.13,0,0,1,2.18.16l-.2.3a1.81,1.81,0,0,0-1.84-.13A1.52,1.52,0,0,0,57.47,27Z"/><path class="cls-2" d="M69.14,31.84a2.45,2.45,0,0,0,.68,1.36,2.24,2.24,0,0,0,1.6.6h0a2.25,2.25,0,0,0,1.76-.7l.32-.47v.58c0,.49,1.11.7,1.51.73.17,0,2.57-.06,4.29-.06s2.16-.3,2.33-.48a.33.33,0,0,0,.08-.13l-.07-.37.32.18a2.41,2.41,0,0,0,1.16.33,1.76,1.76,0,0,0,1.65-1.17,2,2,0,0,0-.49-2.19L84.19,30l.06-.12a2.12,2.12,0,0,0,0-2A1.42,1.42,0,0,0,83,27.17c-.08.88-.57,2-1.76,1.81l-.83-.14.82-.21s1.28-.33,1.42-1.43h0l0-.23a2.84,2.84,0,0,0-.62-2.21,2.27,2.27,0,0,0-1.71-.87h-.29l0-.22A2,2,0,0,0,79.74,22a1.81,1.81,0,0,0-1.41-.68,1.51,1.51,0,0,0-.74.19l-.24.15,0-.28A1.48,1.48,0,0,0,76,20a1.34,1.34,0,0,0-1.14.82l-.17.31-.14-.33a2.46,2.46,0,0,0-2.26-1.71,3.15,3.15,0,0,0-2.73,1.79,1.88,1.88,0,0,0,.28,2.05l.14.18-.21.11s-.72.38-.72,2.68v4a3.81,3.81,0,0,1,.69-1.33,2.65,2.65,0,0,1,2.07-1h.08a2.07,2.07,0,0,1,1.2-1.83,2,2,0,0,1,1.09-.08,1.78,1.78,0,0,0,0-2.28,1.51,1.51,0,0,0-1.8-.5l-.16-.31a1.83,1.83,0,0,1,2.22.58,2.12,2.12,0,0,1,.06,2.61,2.11,2.11,0,0,1,.78.51,1.67,1.67,0,0,1,.48,1.39,2.4,2.4,0,0,1,2.38-.14A2.78,2.78,0,0,1,79.59,30a2.07,2.07,0,0,1-1.71,2.07l-.29,0a1.51,1.51,0,0,1-1.47-1.13l.33-.11a1.18,1.18,0,0,0,1.38.86A1.71,1.71,0,0,0,79.24,30,2.43,2.43,0,0,0,78,27.83c-.75-.38-2.73-1.08-3-1.31a1.77,1.77,0,0,0-1.86-.45,1.72,1.72,0,0,0-1,1.52,2.25,2.25,0,0,1,2,2.12h-.35a2,2,0,0,0-2.11-1.79,2.34,2.34,0,0,0-1.81.87A4.86,4.86,0,0,0,69.14,31.84Zm10.12-6a1.79,1.79,0,0,0-1.83.13l-.2-.3a2.12,2.12,0,0,1,2.18-.16A1.88,1.88,0,0,1,80.52,27l-.35,0A1.48,1.48,0,0,0,79.26,25.84Z"/><path d="M82.17,39.8a3,3,0,0,1-.94.49l-.17-.16a1.36,1.36,0,0,0,.52-.86,3.07,3.07,0,0,1-.94.52l-.23-.17a1.42,1.42,0,0,0,.58-.86s-.75.56-1.17.49h0a1.46,1.46,0,0,0,.32-.89,3.12,3.12,0,0,1-.79.65l-.27-.12a1.36,1.36,0,0,0,.36-.76,2.91,2.91,0,0,1-.93.56,7,7,0,0,0-2-.29c-3.73,0-5.17,2.28-5.22,2.38a.41.41,0,0,0,0,.48,6.74,6.74,0,0,0,5.12,2.33c3.73,0,5.16-2.28,5.22-2.37a.42.42,0,0,0,0-.48l0,0A1.43,1.43,0,0,0,82.17,39.8Zm-6.43,2.89A6,6,0,0,1,72.21,41a5.22,5.22,0,0,1,3.53-1.68,1.86,1.86,0,0,0,0,3.41Zm1.47,0a1.83,1.83,0,0,0,1.07-1.28,1.9,1.9,0,0,0,0-.92.68.68,0,0,1-1.32-.36.67.67,0,0,1,.77-.52,1.63,1.63,0,0,0-.49-.33A6.08,6.08,0,0,1,80.75,41,5.17,5.17,0,0,1,77.21,42.69Z"/><path d="M55.57,40.68a.09.09,0,0,0,0,0,.42.42,0,0,0,0,.48c.06.09,1.49,2.37,5.22,2.37a6.71,6.71,0,0,0,5.11-2.33.42.42,0,0,0,0-.48c-.06-.1-1.49-2.38-5.22-2.38a7,7,0,0,0-2,.29,2.79,2.79,0,0,1-.93-.56,1.42,1.42,0,0,0,.35.76l-.26.12a3.05,3.05,0,0,1-.8-.65,1.4,1.4,0,0,0,.33.89h0c-.43.07-1.17-.49-1.17-.49a1.37,1.37,0,0,0,.57.86l-.23.17a3,3,0,0,1-.93-.52,1.36,1.36,0,0,0,.52.86l-.18.16A2.92,2.92,0,0,1,55,39.8,1.47,1.47,0,0,0,55.57,40.68Zm6.92-.12a1.87,1.87,0,0,0-1.07-1.28A5.23,5.23,0,0,1,65,41a6,6,0,0,1-3.53,1.73A1.85,1.85,0,0,0,62.49,40.56ZM56.42,41A6,6,0,0,1,60,39.28a1.67,1.67,0,0,0-.5.33.68.68,0,0,1,.78.52.69.69,0,0,1-.51.83.7.7,0,0,1-.82-.47,1.9,1.9,0,0,0,0,.92A1.85,1.85,0,0,0,60,42.69,5.14,5.14,0,0,1,56.42,41Z"/><path class="cls-3" d="M62.17,58.11s2.47-3.66,6.42-2.57A6.1,6.1,0,0,1,75,57.46C71.46,61.4,67.42,62.14,62.17,58.11Z"/><path class="cls-4" d="M63.26,58.31s9.75-.24,10.16-.58"/><path class="cls-5" d="M63.26,58.31c1.7-.24,3.39-.34,5.08-.42.85,0,1.7-.06,2.55-.07l1.27,0a7.55,7.55,0,0,0,1.26-.07,10.71,10.71,0,0,1-2.51.48c-.85.09-1.7.14-2.55.18A41.4,41.4,0,0,1,63.26,58.31Z"/><g id="baby"><g id="baby-ultrasound"><path class="cls-2" d="M61.41,219.88c-3.52,0-6-.62-7.66-1.88a6.59,6.59,0,0,1-2.39-4.57c0-.26-.07-.52-.09-.76-.16-1.75.15-2.31.29-2.46a.32.32,0,0,1,.26-.12.83.83,0,0,1,.45.17l.29-.42a4.81,4.81,0,0,0-2.91-.81c-.18,0-.38,0-.61,0h-.48c-1.05,0-1.39-.16-1.44-.23a9.88,9.88,0,0,1-.12-1.55,2.23,2.23,0,0,0,0-.37,1.42,1.42,0,0,1,1.33-1.22c.27,0,.39.13.39.4,0,.08,0,.34.44.34a21.4,21.4,0,0,0,4.54-1.33,7.83,7.83,0,0,1,2.65-.56,3.35,3.35,0,0,1,2.87,1.5.28.28,0,0,0-.14.22c0,.26.24.3.64.33a.56.56,0,0,0,.32.11.43.43,0,0,0,.25-.07c.33,0,.7,0,1.1,0,.19,0,.5,0,.8.05l.59,0,2.18.45.12-.5c-1.19-.34-1.39-.59-1.41-.63a1.16,1.16,0,0,1,.76-1.29,2.09,2.09,0,0,1,.66-.06,13.6,13.6,0,0,1,4.43.74c.37.3.72.78.65,1.07s-.42.36-.72.43l.07.51.43,0a4.05,4.05,0,0,1,2.83,1l.87.72,0,0,0,0,0,0,.68.55-.53-.71.17-.18,0,0-.16.18-.65-.89,0,0c-.38-.56-.16-1.79.57-3.19a12.52,12.52,0,0,1,3-3.75,6.82,6.82,0,0,1,4.17-1.79,8.36,8.36,0,0,1,.1,16.71h-.1a8.08,8.08,0,0,1-5.58-2.21l-.32-.3-.1.43c-.37,1.58-1.92,3.05-4.36,4.14A23,23,0,0,1,61.41,219.88Zm-10.88-8.44c-.42-.35-1.17-1-1.93-1.74,1,0,1.94.11,2.34.17A12.07,12.07,0,0,0,50.53,211.44Z"/><path class="cls-2" d="M80.91,199.63a8.1,8.1,0,0,1,.09,16.2h-.09a7.9,7.9,0,0,1-5.41-2.15l-.63-.59-.21.85c-.35,1.5-1.84,2.91-4.21,4a22.88,22.88,0,0,1-9,1.71c-3.46,0-5.92-.59-7.51-1.82a6.3,6.3,0,0,1-2.29-4.41c0-.26-.07-.51-.09-.74-.16-1.75.16-2.2.22-2.27s.06,0,.07,0a.59.59,0,0,1,.31.12,3.3,3.3,0,0,1,.59.59.52.52,0,0,0,.41.21.55.55,0,0,0,.49-.32.54.54,0,0,0-.09-.57,4.29,4.29,0,0,0-.83-.76,5,5,0,0,0-3-.84h-1.1a3.65,3.65,0,0,1-1.2-.13,10,10,0,0,1-.1-1.36,1.7,1.7,0,0,0,0-.39,1.17,1.17,0,0,1,1.08-1,.25.25,0,0,1,.12,0,.51.51,0,0,1,0,.13.6.6,0,0,0,.69.58,22.55,22.55,0,0,0,4.63-1.33,7.34,7.34,0,0,1,2.56-.55A3,3,0,0,1,58.91,206a.42.42,0,0,0-.06.21.53.53,0,0,0,.4.54l.14,0,.27,0a.73.73,0,0,0,.41.12.82.82,0,0,0,.3-.07l1.05,0c.18,0,.49,0,.77.06l.58,0c.86.17,1.58.32,2.14.45a8.46,8.46,0,0,0,1.06.24h.46l0-.46a.5.5,0,0,0-.41-.56l-.18,0c-.17,0-.42-.11-.72-.17a4.22,4.22,0,0,1-1.22-.49.87.87,0,0,1,.61-1,2.59,2.59,0,0,1,.56,0,13.94,13.94,0,0,1,4.28.69c.38.31.59.69.56.8s-.11.15-.49.24-.61.05-.94.1l.09,1a6.64,6.64,0,0,0,1-.1H70a3.76,3.76,0,0,1,2.63.92,4.52,4.52,0,0,0,.76.69l.13.09,0,0,.69-.74,0-.06-.18-.15-.63-.57a1.59,1.59,0,0,1-.08-1,6.43,6.43,0,0,1,.68-1.85,12.29,12.29,0,0,1,3-3.68,6.69,6.69,0,0,1,4-1.72M49.3,210c.52,0,1,.06,1.31.1,0,.18-.11.37-.15.54s-.06.23-.09.33l-1.07-1m31.61-10.86c-4.69,0-9.29,7.17-8,9.12l0,0c.28.23.55.49.85.75l0,0,0,0a4.41,4.41,0,0,1-.85-.75,4.28,4.28,0,0,0-3-1.08,3.54,3.54,0,0,0-.45,0,5.88,5.88,0,0,1-.93.1,8.46,8.46,0,0,1,.93-.1c1.68-.37.67-1.55.18-1.95s-3.19-.8-4.59-.8a2.3,2.3,0,0,0-.77.08,1.41,1.41,0,0,0-.91,1.54c0,.33.88.66,1.6.87a7.13,7.13,0,0,1,.94.23c-.32-.06-.63-.14-.94-.23l-2.2-.46c-.35,0-1.06-.1-1.42-.1-.6,0-1.07,0-1.4-.05l.19.05a.23.23,0,0,1-.14,0,.32.32,0,0,1-.22-.1c-.42,0-.55-.08-.45-.08a3,3,0,0,1,.42.05c-.5-.46-1.18-2-3.44-2a7.73,7.73,0,0,0-2.73.58,21.73,21.73,0,0,1-4.46,1.31c-.12,0-.19,0-.19-.08a.59.59,0,0,0-.64-.66,1.67,1.67,0,0,0-1.58,1.48,7.1,7.1,0,0,0,.1,2c0,.39,1.05.45,1.69.45h.5l.6,0a4.52,4.52,0,0,1,2.75.76,4,4,0,0,1,.74.68s0,0,0,0h0a3.37,3.37,0,0,0-.71-.7,1,1,0,0,0-.59-.21c-.65,0-1,1-.79,2.87,0,.24,0,.5.09.77.54,3.75,2.66,6.66,10.3,6.66,7.1,0,13-2.65,13.75-6.07a8.36,8.36,0,0,0,5.74,2.28H81a8.62,8.62,0,0,0,.35-17.21h-.45Zm-21.1,7.19,0,0H60l-.2,0Zm-11.88,3.11a37.46,37.46,0,0,0,2.82,2.48s0,0,0,0a7.43,7.43,0,0,1,.5-2.15c.1-.21-3.33-.31-3.33-.31Z"/></g></g><path class="cls-6" d="M8.55,225l12.81-1.79,6.47,15.39s2.52,7.84-3,3.91-5.52,2.41-5.52,2.41l4.24,13.43s-.7,3-7.14-1.23S3,250.92,7,239.69,8.55,225,8.55,225Z"/><path class="cls-6" d="M123,219.62l9.13,1.66s6,24.88-6.7,33.57.15-12.45.15-12.45,0-10.65-5.75-4.63-7.92,2.15-5.88-2.85S123,219.62,123,219.62Z"/><path id="lungs-bronchi" d="M53.76,105.47s7-4.91,7.49-.16,2.55,23.2-2.5,23.68c-5.73.54-18.94,3.11-17.74-2.26S47.57,110.22,53.76,105.47Zm27,0s-7-4.91-7.49-.16-2.55,23.2,2.5,23.68c5.73.54,18.94,3.11,17.74-2.26s-6.56-16.51-12.75-21.26Zm-15.07.47-3.14,4.13v3.27l4.71-4.83,1,.93,3.79,3.9.18-3.27-3-4L69.1,95.58H65.77Z"/><path class="cls-7" d="M77.58,114.35c-5.72-3.91-9.26,1.32-9.86,2.31-.6-1-4.14-6.22-9.86-2.31-1.91,1.3-5,7,1.88,12.24,1.66,1.26,5.1,3.45,6.89,5.09a8.84,8.84,0,0,1,1,1.08l.06.09.06-.09a7.63,7.63,0,0,1,1-1.08c1.79-1.65,5.23-3.84,6.88-5.09C82.58,121.36,79.49,115.65,77.58,114.35Z"/><path d="M85.37,173.31c-.55-.33-3.27-1.67-3.27-1.67a4.4,4.4,0,0,0,2.22-2.29c.5-1.17-.33-1.44-1.66-.34a3.14,3.14,0,0,1-3.44.58c-2.46-1.43-5.37-.57-6.12.39a5.7,5.7,0,0,0-1.22-1.55c.62-2.33,2.59-5.3,4.07-5.3s4.39-.69,4.39-1.4c0-1.35-.85-.94-2.14-.75-1,.15-1.1-2.24-1.17-2.69-.23-1.58-2-3.42-1.92-.75.07,2.14,2.46,3.07-.54,4.37-1.5.65-2.91,3.88-3.54,5.92a4.08,4.08,0,0,0-2-.52c.23-1.59-1.24-4.58-2.11-6.88a4.79,4.79,0,0,1-.54-2.89c.77-1.3-1.6-5.55-1.55-.42,0,1.17.46,2-.84,2.41a3.71,3.71,0,0,0-2.69,2.1c-.77,2.05,3.32-.47,3.69-.55a6.24,6.24,0,0,1,2.47,6.52,4.72,4.72,0,0,0-1.7,1.2c-.62-1.54-2.86-3.25-6.32-1.07-1.28.8-2.74.68-2.69-.56.08-2.17-.94-4.34-1.44-1.86,0,0-.13,3.44.33,3.72s-1.4-.51-2.63-.65c-1.58-.19-2,2.16-.93,2s3.81.89,4.74.28c2.48-1.64,7.28-3.73,8-.47a6.89,6.89,0,0,0-.69,2.67c-1.38-.65-4.41-.54-5.35,2.18s-2.69-.5-3.87-.28.53,1.28.53,1.28l1.73.64a15.27,15.27,0,0,1-1.46,2.16c-1,1.1-.48,1.42.56.91s2.92-3.48,2.92-3.48a3.83,3.83,0,0,1,5-2.39,5.67,5.67,0,0,0,3.46,5c.26,2.28-2.88,5.49-4.22,5a5.11,5.11,0,0,0-3,1.15c-1.61,1.34,3.3.21,3.3.21s.51,1.05-.77,2.27c-1.87,1.77-.4,2.88-.4,2.88.32.05,1.51-2.64,3.09-5.21,1-1.61,2.84-4.22,3.74-6.11a4.27,4.27,0,0,0,2.3-1,1.71,1.71,0,0,0,.27.2c5.39,3.4,2.46,4.89,1.38,6.14-1.34,1.4-1.64,3.19,0,1.87,1.19-1,1.71-1.4,1.71-1.4s.22-.87,1.43,1.55c1.92,3.86,2.73,1.91,1.82,0,0,0-2.52-1.77-1.87-3.5s-1.66-5-3.62-6.08a6.81,6.81,0,0,0,.94-4.84c1.4-2.81,4.49-1.81,5.45-1a34.63,34.63,0,0,0,5.54,3.9C86.71,175.75,86.2,173.79,85.37,173.31ZM70.3,174.7a1.57,1.57,0,0,1-2.52,0,2.48,2.48,0,0,1,0-3,1.57,1.57,0,0,1,2.52,0,2.48,2.48,0,0,1,0,3Z"/><g id="stomach"><path d="M62.64,152.58h2a.37.37,0,0,0,.31-.38c0-.49.12-1.3.41-1.49.93-.6,3.91,1.65,6.7,1.87,3.34.27,7.11-4.27,7.74-7.47S80.2,136.55,76,135c-3.56-1.33-7.45,1.81-8.89,2.17-.94.23-1.57-1.37-1.78-3a9.85,9.85,0,0,1-.13-2,.32.32,0,0,0-.21-.37H62.68a.3.3,0,0,0-.26.33v.05c.15,1.33.71,5.73,1.42,7.09.84,1.6,2.1.27,3.35,3.47.42,1.6.84,4.16-3.14,4.8-2,.33-1.83,3.66-1.72,4.74A.34.34,0,0,0,62.64,152.58Z"/></g><path class="cls-8" d="M57.74,69.38s12.18,6.12,1.35,14.86"/><path class="cls-8" d="M77.05,69.38s-8.17,7.87,0,14.86"/></g></svg>