<svg xmlns="http://www.w3.org/2000/svg" viewBox="0 0 133.2 71.4"><defs><style>.cls-1{fill:#707070;}</style></defs><g id="Layer_2" data-name="Layer 2"><g id="Layer_1-2" data-name="Layer 1"><path id="left-hand" class="cls-1" d="M26.16,1.7l-24.87,30s-12.11,14.47,37.9,17.88S91.83,67.8,91.83,67.8s20.23,11,5.3-5.43S70.52,39,70.52,39s12.53-.68,32.1,14.12S131.46,70,114.82,53,90.25,29.21,90.25,29.21s22.37,7.56,28.66,14.15,15.79,2.65,4.54-7.88S96.66,15.34,92.93,13.14s31.26,5.33,34.26,11.07,15.75-.8-8.62-15A66.86,66.86,0,0,0,69.78,1.7C68.19,1.94,29.13,5.45,26.16,1.7Z"/></g></g></svg>