<svg xmlns="http://www.w3.org/2000/svg" viewBox="0 0 205.64 174.76"><defs><style>.cls-1{fill:#707070;stroke:#fff;stroke-miterlimit:10;stroke-width:2px;opacity:0.7;}</style></defs><g id="Layer_2" data-name="Layer 2"><g id="Layer_1-2" data-name="Layer 1"><path id="lungs-bronchi" class="cls-1" d="M50.12,49.94s27.05-24.24,28.95-.53,10.42,115.75-9.11,118c-22.15,2.53-73.2,14.92-68.68-11.84S26.28,73.43,50.12,49.94Zm104.39.87s-27.27-24.69-28.95-1-9.37,115.59,10.19,118.15c22.17,2.9,73.34,16.14,68.57-10.69S178.57,74.7,154.51,50.81ZM96.24,52.66,84.18,73.14l.07,16.31,18.12-23.93,3.95,4.7,14.75,19.54.64-16.31-11.53-19.9-1-52.43L96.36,1Z"/></g></g></svg>