<svg xmlns="http://www.w3.org/2000/svg" xmlns:xlink="http://www.w3.org/1999/xlink" viewBox="0 0 897.81 1733"><defs><style>.cls-1,.cls-4,.cls-5,.cls-7{fill:#4b1fff;}.cls-1,.cls-12,.cls-15,.cls-2,.cls-25,.cls-4,.cls-7,.cls-8{stroke:#000;}.cls-1,.cls-12,.cls-15,.cls-2,.cls-23,.cls-24,.cls-25,.cls-27,.cls-4,.cls-7,.cls-8{stroke-miterlimit:10;}.cls-1,.cls-12,.cls-15,.cls-2,.cls-23,.cls-24,.cls-27,.cls-4,.cls-7,.cls-8{stroke-width:2px;}.cls-10,.cls-12,.cls-15,.cls-2{fill:#fff;}.cls-3{isolation:isolate;}.cls-12,.cls-4{mix-blend-mode:screen;}.cls-6{clip-path:url(#clip-path);}.cls-15,.cls-7{mix-blend-mode:multiply;}.cls-23,.cls-24,.cls-25,.cls-27,.cls-8{fill:none;}.cls-9{clip-path:url(#clip-path-2);}.cls-11{clip-path:url(#clip-path-3);}.cls-13{clip-path:url(#clip-path-4);}.cls-14{clip-path:url(#clip-path-5);}.cls-16{clip-path:url(#clip-path-6);}.cls-17{clip-path:url(#clip-path-7);}.cls-18{clip-path:url(#clip-path-8);}.cls-19{clip-path:url(#clip-path-9);}.cls-20{clip-path:url(#clip-path-10);}.cls-21{clip-path:url(#clip-path-11);}.cls-22{clip-path:url(#clip-path-12);}.cls-23,.cls-24,.cls-27{stroke:#707070;}.cls-23,.cls-27{stroke-dasharray:1;}.cls-23,.cls-24,.cls-25,.cls-26{opacity:0.7;}.cls-24,.cls-25{stroke-dasharray:3;}</style><clipPath id="clip-path"><polygon class="cls-1" points="609.77 1498.84 712.11 1683.55 172.34 1683.55 227.17 1498.84 609.77 1498.84"/></clipPath><clipPath id="clip-path-2"><polygon class="cls-1" points="712.11 1683.55 702.14 1714 180.73 1714 172.34 1683.55 712.11 1683.55"/></clipPath><clipPath id="clip-path-3"><path class="cls-2" d="M627.26,607.37l-1.63,39.35s-4.52,10.73-13.6,3.52c-6.29-5-16.41-23.85-22-39-.94-2.57,7-7.5,6.07-10.44-7.74,0-16.77-4-18.77-5.65l-.3-.29c-2.54-3-5-5.87-7.32-8.61a91,91,0,0,0,24.1-3.54C622.9,585.23,627.26,607.37,627.26,607.37Z"/></clipPath><clipPath id="clip-path-4"><path class="cls-2" d="M589.23,381.38c.16-.67.35-1.33.57-2h0c-5.18-31.2,8.67-66.05,31.12-90.65-26-10.14-62-6.42-77.3-19.47C522,250.84,549.54,186.9,572.1,144.83c-6.32,5.76-10.75,4-10.75,4-20.61,31-67.44,56.79-94.26,60.45C458,243,436.32,266.82,412.7,250.6c-10.62-7.25-22.23-14.91-34.65-18.49-1,43.53-18.5,87.16-34.32,128.8,8-8.31,15.17-15.55,20.71-20.86,0,0,21.68,6.68,20.67,28.55s-1.23,60.91,34.43,72.77c30.07,10,59.11-7.13,68.93-23.28,8.39-15.25,13.94-12.92,22.38,4.73,5.31,27.74,37.45,39.5,61.66,27.35a49.21,49.21,0,0,0,4.55-2.63c24.63-16.15,16.78-42.81,16.78-42.81C588.51,396.51,587.47,388.58,589.23,381.38Z"/></clipPath><clipPath id="clip-path-5"><path class="cls-2" d="M570.68,1137.79c7.38-22.83,18-25.69,18.62-59.94s15.17-48.52,28.64-138.42c11.87-79.24,20.89-197.28,1.76-268.12h-.05l-2.84-9.48c-.59-1.94-1.24-3.89-1.95-5.77l-4.2-10c-.11-.22-.17-.39-.28-.62-1.12-2.4-2.31-4.68-3.44-6.85l-1.63-2.91c1,3,3.65,14.88-6,40.41-54.4,108.51-97.28,132-97.28,132s1,31.29,1.25,99.9c.23,53.83,11.33,142,11.33,194.09,0,21.4-25.58,40.35-26.1,92.24s30.53,217.43,26.1,244.55-29.52,41.38-19.2,62.78,25.11,35.68,36.93,61.36,34,28.54,57.58,21.41,1.47-2.85-16.24-31.39-20.68-78.49-25.11-109.89-1.47-23.57,5.91-146.64S563.3,1160.62,570.68,1137.79Z"/></clipPath><clipPath id="clip-path-6"><path class="cls-2" d="M404.3,645.9c12.59,7,19.67,8.57,18.61,4.74s-23-19.52-31.41-21.86c-4.56-1.25-10.47-1.25-17-.63-10.05.86-21.5,3-31.25,3.71a80.08,80.08,0,0,1-25.8-2.11c-10.86-14.28-34.72-46.13-59.35-96.58s-19.67-66.56-6.86-78.15c20.08-18.21,58.7-59.2,87.65-89.17.06,2.49.14,4.86.22,7.17,16.82-45.24,37.79-93.14,38.9-140.91-15.22-4.41-31.67-2.67-49.05,13.64-31.47,29.63-38.38,62.91-65,90.48s-76.6,106.86-90.54,136.09c-5.91,12.32,10.79,25.68,17.72,40.87s27.57,67.58,101.4,146.53c0,0-4.95,20,32.49,18.09,17.59-.91,28.23.29,36.09,3.15,8.85,3.19,14.16,8.38,22,14.9,14.76,12.38,10.69-1.66-3-15.19a91.39,91.39,0,0,0-16.49-12.5l-1.87-1.09a10.6,10.6,0,0,1,2.3-.68c3.59-.81,11.21-.81,21,7.59,17.73,15.24,31.07,22.2,27.17,15.52-3.31-5.65-16.06-21.86-30.71-32.24v-.06c29,7.82,32.08,21.41,37,18.55,4.78-2.74-8.45-25.52-38.44-36.14v0C382.87,640.25,390.55,638.31,404.3,645.9Z"/></clipPath><clipPath id="clip-path-7"><path class="cls-2" d="M590.8,384.3c22.41,42.43,18.31,86.42,40.43,141.27,14.76-8.56,51.85-8.1,47.6,51.55a27.6,27.6,0,0,0,5.54-13.48c3-28.53-4.9-103.71-15.77-141.79S663.71,348.61,646,310.54c-5.19-11.11-14.29-17.6-25.06-21.8C597.3,314.64,583.18,351.9,590.8,384.3Z"/></clipPath><clipPath id="clip-path-8"><path class="cls-2" d="M627.26,607.37s-4.36-22.14-33.42-24.71c26.58-28.54,37.39-57.09,37.39-57.09,14.76-8.56,51.85-8.1,47.6,51.55v.06C664.36,597,627.26,607.37,627.26,607.37Z"/></clipPath><clipPath id="clip-path-9"><path class="cls-2" d="M596.13,600.75a76.64,76.64,0,0,0-6.07,10.44c-8.09,17.25-3.13,27.75-.76,27.12,1.93-.51,5-6.33,9-14.78.76-1.54,1.47-3.08,2.3-4.74,1.24-2.62,2.59-5.37,4-8.28a29.54,29.54,0,0,0,1.36-3.14l.16-.34C611.31,593.84,606.82,585.17,596.13,600.75Z"/></clipPath><clipPath id="clip-path-10"><path class="cls-2" d="M614,599.78c-3-.85-6.92,5.71-7.81,7.25l-.16.34a29.54,29.54,0,0,1-1.36,3.14c-1.43,2.91-2.78,5.66-4,8.28-.52,2-1,4-1.54,5.94-3.18,11.76-6.07,21.68-2.12,25,2.77,2.34,6.25-3.6,10-11.13,2.07-4.45,4.2-9.36,6.34-13.59V625c.22-.45.46-.91.7-1.36a64.5,64.5,0,0,0,5.14-12.28C620.53,605.6,619.58,601.32,614,599.78Z"/></clipPath><clipPath id="clip-path-11"><path class="cls-2" d="M625.8,627.18a53,53,0,0,1-3.44,11.13c-1.66,4.05-3.37,8.28-4.9,11.93-.94,2.17-1.82,4.17-2.6,5.82-1.58,3-2.58,5.45-3.76,5.08-1.9-.6-1.28-9.74-.44-15.07A144.31,144.31,0,0,1,613.28,625V625c.22-.45.46-.91.7-1.36a64.5,64.5,0,0,0,5.14-12.28c5.54,3.54,7.79,8.17,6.78,15.3C625.85,626.78,625.85,627,625.8,627.18Z"/></clipPath><clipPath id="clip-path-12"><path class="cls-2" d="M486,21.58c83.92-21.51,88.54,59.79,87.92,85.63-.12,4.74-.41,7.64-.41,7.64a193.65,193.65,0,0,1-1.14,30.58,157.58,157.58,0,0,1-3.54,19.68q-1.64,6.49-3.77,12.49c-6.8,18.66-29.78,48.38-46.77,51.74-15,3-38-9.92-51.31-21.73a58.1,58.1,0,0,1-4.74-4.57c-6.4-6.84-12.75-25.89-18.25-49-2.23-9.53-4.34-19.74-6.22-30.07-2.06-11.29-3.84-22.76-5.27-33.66C426.58,45.31,459.21,28.43,486,21.58Z"/></clipPath></defs><g class="cls-3"><g id="mannequin"><polygon class="cls-1" points="712.11 1683.55 702.14 1714 180.73 1714 172.34 1683.55 712.11 1683.55"/><polygon class="cls-4" points="712.11 1683.55 702.14 1714 180.73 1714 172.34 1683.55 712.11 1683.55"/><polygon class="cls-5" points="609.77 1498.84 712.11 1683.55 172.34 1683.55 227.17 1498.84 609.77 1498.84"/><g class="cls-6"><path class="cls-4" d="M526.78,1586c160-262.89,339.6-447.58,401.06-412.58s-18.44,276.33-178.5,539.17-339.63,447.5-401,412.55S366.73,1848.71,526.78,1586Z"/><path class="cls-7" d="M539.85,1515.09c82.73,54.16,138.88,113.64,125.41,132.84s-91.42-9.14-174.18-63.3S352.23,1471,365.69,1451.77,457.13,1460.94,539.85,1515.09Z"/><path class="cls-7" d="M274.41,1556.41c82.75,54.17,138.89,113.65,125.41,132.86s-91.41-9.14-174.16-63.33S86.8,1512.33,100.26,1493.11,191.69,1502.26,274.41,1556.41Z"/></g><polygon class="cls-8" points="609.77 1498.84 712.11 1683.55 172.34 1683.55 227.17 1498.84 609.77 1498.84"/><polygon class="cls-5" points="712.11 1683.55 702.14 1714 180.73 1714 172.34 1683.55 712.11 1683.55"/><g class="cls-9"><path class="cls-4" d="M241.07,1715.37c81.87-134.49,173.76-229,205.19-211.08s-9.43,141.38-91.32,275.85-173.75,229-205.18,211.09S159.18,1849.8,241.07,1715.37Z"/><path class="cls-4" d="M439.4,1779.4c81.9-134.51,161-236.25,176.74-227.29s-37.91,125.18-119.8,259.65S335.33,2048,319.63,2039,357.53,1913.8,439.4,1779.4Z"/></g><polygon class="cls-8" points="712.11 1683.55 702.14 1714 180.73 1714 172.34 1683.55 712.11 1683.55"/><path class="cls-10" d="M627.26,607.37l-1.63,39.35s-4.52,10.73-13.6,3.52c-6.29-5-16.41-23.85-22-39-.94-2.57,7-7.5,6.07-10.44-7.74,0-16.77-4-18.77-5.65l-.3-.29c-2.54-3-5-5.87-7.32-8.61a91,91,0,0,0,24.1-3.54C622.9,585.23,627.26,607.37,627.26,607.37Z"/><g class="cls-11"><path class="cls-12" d="M582.68,575.67c17-1.65,31.23,1.58,31.81,7.19S601.77,594.35,584.78,596s-31.24-1.58-31.82-7.2S565.69,577.29,582.68,575.67Z"/></g><path class="cls-8" d="M627.26,607.37l-1.63,39.35s-4.52,10.73-13.6,3.52c-6.29-5-16.41-23.85-22-39-.94-2.57,7-7.5,6.07-10.44-7.74,0-16.77-4-18.77-5.65l-.3-.29c-2.54-3-5-5.87-7.32-8.61a91,91,0,0,0,24.1-3.54C622.9,585.23,627.26,607.37,627.26,607.37Z"/><path class="cls-2" d="M627.26,607.37s-4.36-22.14-33.42-24.71c26.58-28.54,37.39-57.09,37.39-57.09,14.76-8.56,51.85-8.1,47.6,51.55v.06C664.36,597,627.26,607.37,627.26,607.37Z"/><path class="cls-2" d="M338.93,365.85c-28.95,30-67.57,71-87.65,89.17-12.81,11.59-17.72,27.74,6.86,78.15s48.49,82.3,59.35,96.58a80.08,80.08,0,0,0,25.8,2.11c9.75-.68,21.2-2.85,31.25-3.71q-5.85,17.9-10.39,38.25a10.6,10.6,0,0,0-2.3.68l1.87,1.09c-.88,4.17-1.76,8.45-2.52,12.79-7.86-2.86-18.5-4.06-36.09-3.15-37.44,1.89-32.49-18.09-32.49-18.09-73.83-79-94.5-131.29-101.4-146.53s-23.63-28.55-17.72-40.87c13.94-29.23,64-108.47,90.54-136.09s33.49-60.85,65-90.48,60.07-11.3,83.7,4.85S458,243,467.09,209.28c26.82-3.66,73.65-29.4,94.26-60.45,0,0,4.43,1.76,10.75-4-22.56,42.07-50.15,106-28.47,124.44s84.64,3.25,102.36,41.27,11.81,73.29,22.61,111.31,18.72,113.26,15.77,141.79a27.6,27.6,0,0,1-5.54,13.48c4.25-59.65-32.84-60.11-47.6-51.55-22.64-56.11-17.73-100.86-41.93-144.19h-.07c-1.76,7.2-.72,15.13,4.61,23.35,0,0,7.85,26.66-16.78,42.81a49.21,49.21,0,0,1-4.55,2.63S553,479.9,550,531.28c-1.59,27.28,6.86,39.68,19.73,54.92,2.3,2.74,4.78,5.59,7.32,8.61l.3.29c4,4.74,8.27,10,12.7,16.09-8.09,17.25-3.13,27.75-.76,27.12,1.93-.51,5-6.33,9-14.78a13.27,13.27,0,0,1,.76,1.2c-3.18,11.76-6.07,21.68-2.12,25,2.77,2.34,6.25-3.6,10-11.13,1.13,2.17,2.32,4.45,3.44,6.85.11.23.17.4.28.62-.23,3.54-.28,7.2-.28,11.14,0,6.45,1.82,4.39,4.48-1.15.71,1.88,1.36,3.83,1.95,5.77,0,5.14.6,10,2.84,9.48h.05c19.13,70.84,10.11,188.88-1.76,268.12-13.47,89.9-28.06,104.17-28.64,138.42s-11.24,37.11-18.62,59.94-8.86,35.68-16.24,158.75-10.34,115.25-5.91,146.64,7.38,81.35,25.11,109.89,39.86,24.26,16.24,31.39-45.78,4.29-57.58-21.41-26.59-40-36.93-61.36,14.78-35.67,19.2-62.78-26.57-192.67-26.1-244.55,26.1-70.84,26.1-92.24c0-52.07-11.1-140.26-11.33-194.09-.24-68.61-1.25-99.9-1.25-99.9h-7.62c-11.8,81.8-61.06,178.85-74.83,231.2s-17.65,70.37-17.65,70.37a160.35,160.35,0,0,1-17.72,59.94c-5.91,72.33-5.91,79.92-29.54,138.6s-26.58,74.55-28.58,112.57,1,13.36-3,59.93-2.42,75.41,1,103.72c4.48,37.28,11.81,41.85-13.77,43.79s-40.4-5.27-39.45-30.94,2-69,7.91-93.74,10.87-23.74,10.87-79.91-8.86-170.28,8.85-226.57,31.49-74,40.41-131.11-1.06-33.34,0-150.36S351.68,812,353.63,751.05A444.93,444.93,0,0,1,361.2,681c8.85,3.19,14.16,8.38,22,14.9,14.76,12.38,10.69-1.66-3-15.19a91.39,91.39,0,0,0-16.49-12.5c.13-.57.25-1.2.43-1.77,3.59-.81,11.21-.81,21,7.59,17.73,15.24,31.07,22.2,27.17,15.52-3.31-5.65-16.06-21.86-30.71-32.24v-.06c29,7.82,32.08,21.41,37,18.55,4.78-2.74-8.45-25.52-38.44-36.14v0c2.71.68,10.39-1.26,24.14,6.33,12.59,7,19.67,8.57,18.61,4.74s-23-19.52-31.41-21.86c-4.56-1.25-10.47-1.25-17-.63,3-9.3,6.25-18.15,9.63-26.49,15.7-39,14.76-43.72-7.92-105.32S340.82,438.06,338.93,365.85Z"/><path class="cls-2" d="M590.8,384.3c22.41,42.43,18.31,86.42,40.43,141.27,14.76-8.56,51.85-8.1,47.6,51.55a27.6,27.6,0,0,0,5.54-13.48c3-28.53-4.9-103.71-15.77-141.79S663.71,348.61,646,310.54c-5.19-11.11-14.29-17.6-25.06-21.8C597.3,314.64,583.18,351.9,590.8,384.3Z"/><path class="cls-2" d="M572.1,144.83c-6.32,5.76-10.75,4-10.75,4-20.61,31-67.44,56.79-94.26,60.45C458,243,436.32,266.82,412.7,250.6c-10.62-7.25-22.23-14.91-34.65-18.49C376.94,279.88,356,327.78,339.15,373c2.56,64.88,15.26,63.91,37.1,123.32,22.68,61.6,23.62,66.34,7.92,105.32-3.38,8.34-6.62,17.19-9.63,26.49,6.49-.62,12.4-.62,17,.63,8.37,2.34,30.41,18.09,31.41,21.86s-6,2.23-18.61-4.74c-13.75-7.59-21.43-5.65-24.14-6.33v0c30,10.62,43.22,33.4,38.44,36.14-5,2.86-8-10.73-37-18.55v.06c14.65,10.38,27.4,26.59,30.71,32.24,3.9,6.68-9.44-.28-27.17-15.52-9.75-8.4-17.37-8.4-21-7.59-.18.57-.3,1.2-.43,1.77a91.39,91.39,0,0,1,16.49,12.5c13.64,13.53,17.71,27.57,3,15.19-7.8-6.52-13.11-11.71-22-14.9a444.93,444.93,0,0,0-7.57,70.09C351.68,812,340,798.6,338.93,915.62s9,93.27,0,150.36-22.69,74.78-40.41,131.11-8.85,170.46-8.85,226.57-5,55.2-10.87,79.91-6.91,68-7.91,93.74,13.81,32.82,39.45,30.94,18.25-6.51,13.77-43.79c-3.44-28.31-4.91-57.08-1-103.72s1-21.87,3-59.93,5-53.89,28.58-112.57,23.63-66.27,29.54-138.6a160.35,160.35,0,0,0,17.72-59.94s3.89-18,17.65-70.37,63-149.4,74.83-231.2H502s1,31.29,1.25,99.9c.23,53.83,11.33,142,11.33,194.09,0,21.4-25.58,40.35-26.1,92.24s30.53,217.43,26.1,244.55-29.52,41.38-19.2,62.78,25.11,35.68,36.93,61.36,34,28.54,57.58,21.41,1.47-2.85-16.24-31.39-20.68-78.49-25.11-109.89-1.47-23.57,5.91-146.64,8.86-135.92,16.24-158.75,18-25.69,18.62-59.94,15.17-48.52,28.64-138.42c11.87-79.24,20.89-197.28,1.76-268.12h-.05c-2.24.51-2.84-4.34-2.84-9.48-.59-1.94-1.24-3.89-1.95-5.77-2.66,5.54-4.48,7.6-4.48,1.15,0-3.94,0-7.6.28-11.14-.11-.22-.17-.39-.28-.62-1.12-2.4-2.31-4.68-3.44-6.85-3.72,7.53-7.2,13.47-10,11.13-4-3.32-1.06-13.24,2.12-25a13.27,13.27,0,0,0-.76-1.2c-4.08,8.45-7.1,14.27-9,14.78-2.37.63-7.33-9.87.76-27.12-4.43-6.1-8.69-11.35-12.7-16.09l-.3-.29c-2.54-3-5-5.87-7.32-8.61C556.87,571,548.42,558.56,550,531.28c3-51.38,22.5-81.11,22.5-81.11a49.21,49.21,0,0,0,4.55-2.63c24.63-16.15,16.78-42.81,16.78-42.81-5.33-8.22-6.37-16.15-4.61-23.35h.07c.53,1,1,1.95,1.5,2.92-7.62-32.4,6.5-69.66,30.13-95.56-26-10.14-62-6.42-77.3-19.47C522,250.84,549.54,186.9,572.1,144.83Z"/><path class="cls-2" d="M572.1,144.83c-6.32,5.76-10.75,4-10.75,4-20.61,31-67.44,56.79-94.26,60.45C458,243,436.32,266.82,412.7,250.6c-10.62-7.25-22.23-14.91-34.65-18.49C376.94,279.88,356,327.78,339.15,373c2.56,64.88,15.26,63.91,37.1,123.32,22.68,61.6,23.62,66.34,7.92,105.32-3.38,8.34-6.62,17.19-9.63,26.49-5.39,15.16-8,22.09-13.34,52.81a444.93,444.93,0,0,0-7.57,70.09C351.68,812,340,798.6,338.93,915.62s9,93.27,0,150.36-22.69,74.78-40.41,131.11-8.85,170.46-8.85,226.57-5,55.2-10.87,79.91-6.91,68-7.91,93.74,13.81,32.82,39.45,30.94,18.25-6.51,13.77-43.79c-3.44-28.31-4.91-57.08-1-103.72s1-21.87,3-59.93,5-53.89,28.58-112.57,23.63-66.27,29.54-138.6a160.35,160.35,0,0,0,17.72-59.94s3.89-18,17.65-70.37,63-149.4,74.83-231.2H502s1,31.29,1.25,99.9c.23,53.83,11.33,142,11.33,194.09,0,21.4-25.58,40.35-26.1,92.24s30.53,217.43,26.1,244.55-29.52,41.38-19.2,62.78,25.11,35.68,36.93,61.36,34,28.54,57.58,21.41,1.47-2.85-16.24-31.39-20.68-78.49-25.11-109.89-1.47-23.57,5.91-146.64,8.86-135.92,16.24-158.75,18-25.69,18.62-59.94,15.17-48.52,28.64-138.42c11.87-79.24,20.89-197.28,1.76-268.12h-.05c-2.24.51-2.84-4.34-2.84-9.48-.59-1.94-1.24-3.89-1.95-5.77-2.66,5.54-4.48,7.6-4.48,1.15,0-3.94,0-7.6.28-11.14-.11-.22-.17-.39-.28-.62-1.12-2.4-2.31-4.68-3.44-6.85-3.72,7.53-7.2,13.47-10,11.13-4-3.32-1.06-13.24,2.12-25a13.27,13.27,0,0,0-.76-1.2c-4.08,8.45-7.1,14.27-9,14.78-2.37.63-7.33-9.87.76-27.12-4.43-6.1-8.69-11.35-12.7-16.09l-.3-.29c-2.54-3-5-5.87-7.32-8.61C556.87,571,548.42,558.56,550,531.28c3-51.38,22.5-81.11,22.5-81.11a49.21,49.21,0,0,0,4.55-2.63c24.63-16.15,16.78-42.81,16.78-42.81-5.33-8.22-6.37-16.15-4.61-23.35h.07c.53,1,1,1.95,1.5,2.92-7.62-32.4,6.5-69.66,30.13-95.56-26-10.14-62-6.42-77.3-19.47C522,250.84,549.54,186.9,572.1,144.83Z"/><path class="cls-10" d="M589.23,381.38c.16-.67.35-1.33.57-2h0c-5.18-31.2,8.67-66.05,31.12-90.65-26-10.14-62-6.42-77.3-19.47C522,250.84,549.54,186.9,572.1,144.83c-6.32,5.76-10.75,4-10.75,4-20.61,31-67.44,56.79-94.26,60.45C458,243,436.32,266.82,412.7,250.6c-10.62-7.25-22.23-14.91-34.65-18.49-1,43.53-18.5,87.16-34.32,128.8,8-8.31,15.17-15.55,20.71-20.86,0,0,21.68,6.68,20.67,28.55s-1.23,60.91,34.43,72.77c30.07,10,59.11-7.13,68.93-23.28,8.39-15.25,13.94-12.92,22.38,4.73,5.31,27.74,37.45,39.5,61.66,27.35a49.21,49.21,0,0,0,4.55-2.63c24.63-16.15,16.78-42.81,16.78-42.81C588.51,396.51,587.47,388.58,589.23,381.38Z"/><g class="cls-13"><path class="cls-12" d="M445.83,387.58c11.51,34.55,2.36,68.31-20.41,75.39s-50.56-15.19-62.06-49.75-2.37-68.31,20.42-75.4S434.34,353,445.83,387.58Z"/><path class="cls-12" d="M416.44,330c20.13,30.63,24.26,63,9.23,72.19s-43.55-8.14-63.68-38.79-24.25-63-9.22-72.19S396.31,299.36,416.44,330Z"/><path class="cls-12" d="M485.05,236.1c-1.76,36.26-12.56,65.23-24.15,64.71s-19.55-30.34-17.8-66.61,12.55-65.22,24.14-64.71S486.8,199.83,485.05,236.1Z"/><path class="cls-12" d="M438.29,252.38c33.34,16.72,56,38.34,50.7,48.3s-36.71,4.44-70-12.28-56-38.34-50.68-48.29S405,235.65,438.29,252.38Z"/><path class="cls-12" d="M587,273.7c37.48,2.45,67.2,13.51,66.43,24.7s-31.81,18.25-69.28,15.78-67.21-13.51-66.42-24.7S549.55,271.23,587,273.7Z"/><path class="cls-12" d="M396.32,229.68c35.62,21,59.59,45.7,53.57,55.28s-39.81.34-75.41-20.61-59.56-45.7-53.53-55.27S360.7,208.72,396.32,229.68Z"/><path class="cls-12" d="M555.28,221.25c-32,53.64-67.25,91.94-78.68,85.57s5.23-55,37.25-108.67,67.24-91.94,78.67-85.57S587.29,167.61,555.28,221.25Z"/><path class="cls-12" d="M480.53,434.49c-29.92,50.17-77.23,78-105.62,62.14s-27.16-69.33,2.77-119.49,77.24-78,105.64-62.13S510.49,384.34,480.53,434.49Z"/><path class="cls-12" d="M611.43,381.81c24.54,56.36,22.75,110.85-3.94,121.7s-68.25-26-92.79-82.4-22.73-110.85,4-121.71S586.93,325.42,611.43,381.81Z"/><path class="cls-12" d="M446.89,454.71a32,32,0,0,1-35.68-27.46,31.37,31.37,0,0,1,27.7-35A32,32,0,0,1,474.6,419.7,31.38,31.38,0,0,1,446.89,454.71Z"/><path class="cls-12" d="M492.55,428.69c-12.25,17.86-31.68,26.23-43.41,18.73s-11.33-28.07.94-45.93,31.65-26.23,43.39-18.72S504.78,410.85,492.55,428.69Z"/><path class="cls-12" d="M610,433.47c-12.24,17.85-31.67,26.23-43.39,18.72s-11.33-28.07.91-45.92,31.66-26.24,43.4-18.73S622.21,415.62,610,433.47Z"/><path class="cls-12" d="M577.07,462.82c-21.23,6.16-41.72.59-45.76-12.44s9.87-28.57,31.11-34.72,41.69-.6,45.74,12.43S598.27,456.68,577.07,462.82Z"/><path class="cls-12" d="M564.49,393.4c17.51,27.3,17.1,58.18-.9,69s-46.78-2.62-64.3-29.93-17.08-58.18.91-69S547,366.09,564.49,393.4Z"/></g><path class="cls-8" d="M589.23,381.38c.16-.67.35-1.33.57-2h0c-5.18-31.2,8.67-66.05,31.12-90.65-26-10.14-62-6.42-77.3-19.47C522,250.84,549.54,186.9,572.1,144.83c-6.32,5.76-10.75,4-10.75,4-20.61,31-67.44,56.79-94.26,60.45C458,243,436.32,266.82,412.7,250.6c-10.62-7.25-22.23-14.91-34.65-18.49-1,43.53-18.5,87.16-34.32,128.8,8-8.31,15.17-15.55,20.71-20.86,0,0,21.68,6.68,20.67,28.55s-1.23,60.91,34.43,72.77c30.07,10,59.11-7.13,68.93-23.28,8.39-15.25,13.94-12.92,22.38,4.73,5.31,27.74,37.45,39.5,61.66,27.35a49.21,49.21,0,0,0,4.55-2.63c24.63-16.15,16.78-42.81,16.78-42.81C588.51,396.51,587.47,388.58,589.23,381.38Z"/><path class="cls-2" d="M419.54,729.64c-33.39-20.67-56.09-24-63.21-16.29-1.37,12-2.31,24.6-2.7,37.7C351.68,812,340,798.6,338.93,915.62s9,93.27,0,150.36-22.69,74.78-40.41,131.11-8.85,170.46-8.85,226.57-5,55.2-10.87,79.91-6.91,68-7.91,93.74,13.81,32.82,39.45,30.94,18.25-6.51,13.77-43.79c-3.44-28.31-4.91-57.08-1-103.72s1-21.87,3-59.93,5-53.89,28.58-112.57,23.63-66.27,29.54-138.6a160.35,160.35,0,0,0,17.72-59.94s3.89-18,17.65-70.37,63-149.4,74.83-231.2C457,753.9,419.54,729.64,419.54,729.64Z"/><path class="cls-2" d="M570.68,1137.79c7.38-22.83,18-25.69,18.62-59.94s15.17-48.52,28.64-138.42c11.87-79.24,20.89-197.28,1.76-268.12h-.05l-2.84-9.48c-.59-1.94-1.24-3.89-1.95-5.77l-4.2-10c-.11-.22-.17-.39-.28-.62-1.12-2.4-2.31-4.68-3.44-6.85l-1.63-2.91c1,3,3.65,14.88-6,40.41-54.4,108.51-97.28,132-97.28,132s1,31.29,1.25,99.9c.23,53.83,11.33,142,11.33,194.09,0,21.4-25.58,40.35-26.1,92.24s30.53,217.43,26.1,244.55-29.52,41.38-19.2,62.78,25.11,35.68,36.93,61.36,34,28.54,57.58,21.41,1.47-2.85-16.24-31.39-20.68-78.49-25.11-109.89-1.47-23.57,5.91-146.64S563.3,1160.62,570.68,1137.79Z"/><path class="cls-2" d="M343.66,361.08a.51.51,0,0,1,.07-.17,1,1,0,0,0-.15.14Z"/><path class="cls-10" d="M570.68,1137.79c7.38-22.83,18-25.69,18.62-59.94s15.17-48.52,28.64-138.42c11.87-79.24,20.89-197.28,1.76-268.12h-.05l-2.84-9.48c-.59-1.94-1.24-3.89-1.95-5.77l-4.2-10c-.11-.22-.17-.39-.28-.62-1.12-2.4-2.31-4.68-3.44-6.85l-1.63-2.91c1,3,3.65,14.88-6,40.41-54.4,108.51-97.28,132-97.28,132s1,31.29,1.25,99.9c.23,53.83,11.33,142,11.33,194.09,0,21.4-25.58,40.35-26.1,92.24s30.53,217.43,26.1,244.55-29.52,41.38-19.2,62.78,25.11,35.68,36.93,61.36,34,28.54,57.58,21.41,1.47-2.85-16.24-31.39-20.68-78.49-25.11-109.89-1.47-23.57,5.91-146.64S563.3,1160.62,570.68,1137.79Z"/><g class="cls-14"><path class="cls-15" d="M490.84,782.31c35-43.65,75.34-70.09,90.07-59s-1.75,55.34-36.76,99-75.34,70.08-90.06,59S455.83,826,490.84,782.31Z"/><path class="cls-12" d="M475,933.86c4.23-111,22.76-200.42,41.4-199.74s30.25,91.15,26,202.16S519.6,1136.67,501,1136,470.72,1044.83,475,933.86Z"/><path class="cls-12" d="M532.48,833.53c7.52-110.82,37.43-199.15,66.8-197.27s47,93.19,39.44,204S601.31,1039.41,572,1037.55,525,944.33,532.48,833.53Z"/><path class="cls-12" d="M532.48,930.56c7.52-110.82,37.43-199.14,66.8-197.26s47,93.19,39.44,204S601.31,1136.45,572,1134.6,525,1041.38,532.48,930.56Z"/><path class="cls-12" d="M508.49,1313.39c4.31-120.39,25.17-217.4,46.59-216.67S590.28,1195.6,586,1316s-25.16,217.38-46.57,216.67S504.17,1433.78,508.49,1313.39Z"/><path class="cls-12" d="M521.16,1496.55c-6.88-52.91,4.76-97.9,26-100.49s44,38.23,50.89,91.17-4.75,97.91-26,100.5S528.06,1549.49,521.16,1496.55Z"/><path class="cls-12" d="M521.16,1496.55c-6.88-52.91,4.76-97.9,26-100.49s44,38.23,50.89,91.17-4.75,97.91-26,100.5S528.06,1549.49,521.16,1496.55Z"/><path class="cls-12" d="M463.87,1491.88c12.23-36.22,33.91-61.86,48.46-57.27s16.39,37.66,4.16,73.86-33.91,61.86-48.44,57.28S451.65,1528.11,463.87,1491.88Z"/><path class="cls-12" d="M597.93,1587.31c-25,6.73-46.83,7.08-48.63.81s17.05-16.79,42.12-23.53,46.82-7.08,48.64-.8S623,1580.59,597.93,1587.31Z"/><path class="cls-12" d="M436.48,1185.89c2.17-60.48,27.21-108.72,56-107.76s50.19,50.76,48,111.25-27.18,108.7-55.91,107.74S434.32,1246.35,436.48,1185.89Z"/><path class="cls-12" d="M540.89,1103.91c9.25-31.7,29.67-53.87,45.62-49.52s21.34,33.55,12.07,65.26-29.66,53.84-45.6,49.49S531.64,1135.59,540.89,1103.91Z"/><path class="cls-12" d="M618.31,656.6c-13.89,75.21-41.64,133.32-62,129.8s-25.49-67.3-11.57-142.51,41.68-133.31,62-129.8S632.24,581.42,618.31,656.6Z"/><path class="cls-15" d="M600.12,634c4.25-22.54,12.06-40,17.43-39.1s6.29,20,2,42.54-12.06,40-17.44,39.09S595.85,656.52,600.12,634Z"/></g><path class="cls-8" d="M570.68,1137.79c7.38-22.83,18-25.69,18.62-59.94s15.17-48.52,28.64-138.42c11.87-79.24,20.89-197.28,1.76-268.12h-.05l-2.84-9.48c-.59-1.94-1.24-3.89-1.95-5.77l-4.2-10c-.11-.22-.17-.39-.28-.62-1.12-2.4-2.31-4.68-3.44-6.85l-1.63-2.91c1,3,3.65,14.88-6,40.41-54.4,108.51-97.28,132-97.28,132s1,31.29,1.25,99.9c.23,53.83,11.33,142,11.33,194.09,0,21.4-25.58,40.35-26.1,92.24s30.53,217.43,26.1,244.55-29.52,41.38-19.2,62.78,25.11,35.68,36.93,61.36,34,28.54,57.58,21.41,1.47-2.85-16.24-31.39-20.68-78.49-25.11-109.89-1.47-23.57,5.91-146.64S563.3,1160.62,570.68,1137.79Z"/><path class="cls-10" d="M404.3,645.9c12.59,7,19.67,8.57,18.61,4.74s-23-19.52-31.41-21.86c-4.56-1.25-10.47-1.25-17-.63-10.05.86-21.5,3-31.25,3.71a80.08,80.08,0,0,1-25.8-2.11c-10.86-14.28-34.72-46.13-59.35-96.58s-19.67-66.56-6.86-78.15c20.08-18.21,58.7-59.2,87.65-89.17.06,2.49.14,4.86.22,7.17,16.82-45.24,37.79-93.14,38.9-140.91-15.22-4.41-31.67-2.67-49.05,13.64-31.47,29.63-38.38,62.91-65,90.48s-76.6,106.86-90.54,136.09c-5.91,12.32,10.79,25.68,17.72,40.87s27.57,67.58,101.4,146.53c0,0-4.95,20,32.49,18.09,17.59-.91,28.23.29,36.09,3.15,8.85,3.19,14.16,8.38,22,14.9,14.76,12.38,10.69-1.66-3-15.19a91.39,91.39,0,0,0-16.49-12.5l-1.87-1.09a10.6,10.6,0,0,1,2.3-.68c3.59-.81,11.21-.81,21,7.59,17.73,15.24,31.07,22.2,27.17,15.52-3.31-5.65-16.06-21.86-30.71-32.24v-.06c29,7.82,32.08,21.41,37,18.55,4.78-2.74-8.45-25.52-38.44-36.14v0C382.87,640.25,390.55,638.31,404.3,645.9Z"/><g class="cls-16"><path class="cls-12" d="M379.56,309.25c-47.24,59.65-106.9,92.19-133.24,72.7s-9.44-83.65,37.82-143.31S391,146.45,417.38,166,426.81,249.59,379.56,309.25Z"/><path class="cls-12" d="M375.88,281.21c-34.05,43-77.07,66.48-96.08,52.42S273,273.32,307.07,230.31s77.08-66.47,96.08-52.41S410,238.21,375.88,281.21Z"/><path class="cls-12" d="M284.87,406.43C233.73,471,175.64,511.06,155.14,495.89s4.34-79.82,55.48-144.4,109.21-104.61,129.72-89.44S336,341.86,284.87,406.43Z"/><path class="cls-12" d="M199.71,489.18c-26.89,33.95-57.41,55-68.2,47s2.28-42,29.17-75.9,57.42-55,68.2-47S226.59,455.24,199.71,489.18Z"/><path class="cls-12" d="M206.13,577.1c-37.3-57.52-58.22-109.79-46.71-116.75s51.07,34,88.35,91.52S306,661.65,294.48,668.62,243.42,634.61,206.13,577.1Z"/><path class="cls-12" d="M343.41,672c-33.53,1.42-61.38-12.47-62.24-31.05s25.65-34.8,59.17-36.22,61.38,12.48,62.23,31.05S376.94,670.52,343.41,672Z"/><path class="cls-12" d="M324.6,685.49c-29.33,1.24-53.39-4.09-53.75-11.93S294,658.37,323.3,657.13,376.68,661.22,377,669,353.91,684.23,324.6,685.49Z"/><path class="cls-12" d="M372.85,696.92c-12.8-11.31-20.56-23.25-17.3-26.68s16.23,3,29,14.29,20.55,23.26,17.31,26.68S385.66,708.24,372.85,696.92Z"/><path class="cls-12" d="M385.14,682.3C372.35,671,364.6,659,367.84,655.61s16.22,3,29,14.3,20.54,23.25,17.31,26.68S398,693.62,385.14,682.3Z"/><path class="cls-12" d="M396,668.15c-14.35-9.43-23.78-20.18-21.07-24s16.5.7,30.84,10.14,23.77,20.19,21.08,24S410.31,677.59,396,668.15Z"/><path class="cls-12" d="M403.61,652.88c-16.16-6.07-27.87-14.5-26.12-18.82s16.24-2.91,32.41,3.17,27.86,14.5,26.13,18.83S419.78,659,403.61,652.88Z"/><path class="cls-12" d="M373.91,640.66c-17.29,1.42-31.64-1.17-32-5.79s13.26-9.51,30.55-10.94,31.63,1.17,32,5.78S391.19,639.24,373.91,640.66Z"/><path class="cls-12" d="M374.39,655c-13.19-.64-23.7-4.92-23.45-9.55s11.13-7.86,24.32-7.21,23.71,4.91,23.47,9.55S387.59,655.64,374.39,655Z"/><path class="cls-12" d="M363.56,664.45c-13.2-.65-23.69-4.92-23.45-9.56s11.14-7.86,24.33-7.21,23.69,4.92,23.46,9.55S376.77,665.1,363.56,664.45Z"/></g><path class="cls-8" d="M404.3,645.9c12.59,7,19.67,8.57,18.61,4.74s-23-19.52-31.41-21.86c-4.56-1.25-10.47-1.25-17-.63-10.05.86-21.5,3-31.25,3.71a80.08,80.08,0,0,1-25.8-2.11c-10.86-14.28-34.72-46.13-59.35-96.58s-19.67-66.56-6.86-78.15c20.08-18.21,58.7-59.2,87.65-89.17.06,2.49.14,4.86.22,7.17,16.82-45.24,37.79-93.14,38.9-140.91-15.22-4.41-31.67-2.67-49.05,13.64-31.47,29.63-38.38,62.91-65,90.48s-76.6,106.86-90.54,136.09c-5.91,12.32,10.79,25.68,17.72,40.87s27.57,67.58,101.4,146.53c0,0-4.95,20,32.49,18.09,17.59-.91,28.23.29,36.09,3.15,8.85,3.19,14.16,8.38,22,14.9,14.76,12.38,10.69-1.66-3-15.19a91.39,91.39,0,0,0-16.49-12.5l-1.87-1.09a10.6,10.6,0,0,1,2.3-.68c3.59-.81,11.21-.81,21,7.59,17.73,15.24,31.07,22.2,27.17,15.52-3.31-5.65-16.06-21.86-30.71-32.24v-.06c29,7.82,32.08,21.41,37,18.55,4.78-2.74-8.45-25.52-38.44-36.14v0C382.87,640.25,390.55,638.31,404.3,645.9Z"/><path class="cls-10" d="M590.8,384.3c22.41,42.43,18.31,86.42,40.43,141.27,14.76-8.56,51.85-8.1,47.6,51.55a27.6,27.6,0,0,0,5.54-13.48c3-28.53-4.9-103.71-15.77-141.79S663.71,348.61,646,310.54c-5.19-11.11-14.29-17.6-25.06-21.8C597.3,314.64,583.18,351.9,590.8,384.3Z"/><g class="cls-17"><path class="cls-12" d="M602.37,329.56c-14.12-43.11-10.13-82.8,8.92-88.63s45.94,24.4,60.07,67.51,10.13,82.8-8.92,88.64S616.5,372.68,602.37,329.56Z"/><path class="cls-12" d="M627.75,448.44c-11-62.35-3.88-115.51,15.8-118.74s44.57,44.67,55.53,107S703,552.23,683.27,555.47,638.72,510.79,627.75,448.44Z"/><path class="cls-12" d="M599.71,468.61c-11-62.34-10.91-114.36.14-116.17S628.73,399.7,639.7,462s10.9,114.36-.14,116.18S610.68,531,599.71,468.61Z"/></g><path class="cls-8" d="M590.8,384.3c22.41,42.43,18.31,86.42,40.43,141.27,14.76-8.56,51.85-8.1,47.6,51.55a27.6,27.6,0,0,0,5.54-13.48c3-28.53-4.9-103.71-15.77-141.79S663.71,348.61,646,310.54c-5.19-11.11-14.29-17.6-25.06-21.8C597.3,314.64,583.18,351.9,590.8,384.3Z"/><path class="cls-10" d="M627.26,607.37s-4.36-22.14-33.42-24.71c26.58-28.54,37.39-57.09,37.39-57.09,14.76-8.56,51.85-8.1,47.6,51.55v.06C664.36,597,627.26,607.37,627.26,607.37Z"/><g class="cls-18"><path class="cls-12" d="M635.58,563.34c64.06-41.41,125-62,136.12-45.91s-31.82,62.64-95.9,104.06-125,62-136.14,45.9S571.5,604.76,635.58,563.34Z"/><path class="cls-12" d="M608.36,540.21c33.42-47.29,68.31-80.46,77.94-74.1s-9.65,49.84-43.06,97.13-68.32,80.44-78,74.09S575,587.49,608.36,540.21Z"/></g><path class="cls-8" d="M627.26,607.37s-4.36-22.14-33.42-24.71c26.58-28.54,37.39-57.09,37.39-57.09,14.76-8.56,51.85-8.1,47.6,51.55v.06C664.36,597,627.26,607.37,627.26,607.37Z"/><path class="cls-2" d="M622.36,638.31c6.92,5.25,2,31.74-2.66,33h-.05c-1.66.54-1.82-1.08-2.23-2.46a31.08,31.08,0,0,1-.61-7c0-5.59.65-11.59.65-11.59C619,646.59,620.7,642.36,622.36,638.31Z"/><path class="cls-2" d="M625.8,627.18a53,53,0,0,1-3.44,11.13c-1.66,4.05-3.37,8.28-4.9,11.93-.94,2.17-1.82,4.17-2.6,5.82-1.58,3-2.58,5.45-3.76,5.08-1.9-.6-1.28-9.74-.44-15.07A144.31,144.31,0,0,1,613.28,625V625c.22-.45.46-.91.7-1.36a64.5,64.5,0,0,0,5.14-12.28c5.54,3.54,7.79,8.17,6.78,15.3C625.85,626.78,625.85,627,625.8,627.18Z"/><path class="cls-2" d="M614,599.78c-3-.85-6.92,5.71-7.81,7.25l-.16.34a29.54,29.54,0,0,1-1.36,3.14c-1.43,2.91-2.78,5.66-4,8.28-.52,2-1,4-1.54,5.94-3.18,11.76-6.07,21.68-2.12,25,2.77,2.34,6.25-3.6,10-11.13,2.07-4.45,4.2-9.36,6.34-13.59V625c.22-.45.46-.91.7-1.36a64.5,64.5,0,0,0,5.14-12.28C620.53,605.6,619.58,601.32,614,599.78Z"/><path class="cls-10" d="M596.13,600.75a76.64,76.64,0,0,0-6.07,10.44c-8.09,17.25-3.13,27.75-.76,27.12,1.93-.51,5-6.33,9-14.78.76-1.54,1.47-3.08,2.3-4.74,1.24-2.62,2.59-5.37,4-8.28a29.54,29.54,0,0,0,1.36-3.14l.16-.34C611.31,593.84,606.82,585.17,596.13,600.75Z"/><g class="cls-19"><path class="cls-12" d="M587.6,599.77c8.86-17.16,20.23-29,25.4-26.56s2.18,18.43-6.68,35.6-20.24,29.05-25.41,26.55S578.73,616.93,587.6,599.77Z"/></g><path class="cls-8" d="M596.13,600.75a76.64,76.64,0,0,0-6.07,10.44c-8.09,17.25-3.13,27.75-.76,27.12,1.93-.51,5-6.33,9-14.78.76-1.54,1.47-3.08,2.3-4.74,1.24-2.62,2.59-5.37,4-8.28a29.54,29.54,0,0,0,1.36-3.14l.16-.34C611.31,593.84,606.82,585.17,596.13,600.75Z"/><path class="cls-10" d="M614,599.78c-3-.85-6.92,5.71-7.81,7.25l-.16.34a29.54,29.54,0,0,1-1.36,3.14c-1.43,2.91-2.78,5.66-4,8.28-.52,2-1,4-1.54,5.94-3.18,11.76-6.07,21.68-2.12,25,2.77,2.34,6.25-3.6,10-11.13,2.07-4.45,4.2-9.36,6.34-13.59V625c.22-.45.46-.91.7-1.36a64.5,64.5,0,0,0,5.14-12.28C620.53,605.6,619.58,601.32,614,599.78Z"/><g class="cls-20"><path class="cls-12" d="M603.43,609.15C609.84,591,620.1,578,626.31,580s6.08,18.44-.32,36.59-16.68,31.2-22.91,29.14S597,627.28,603.43,609.15Z"/></g><path class="cls-8" d="M614,599.78c-3-.85-6.92,5.71-7.81,7.25l-.16.34a29.54,29.54,0,0,1-1.36,3.14c-1.43,2.91-2.78,5.66-4,8.28-.52,2-1,4-1.54,5.94-3.18,11.76-6.07,21.68-2.12,25,2.77,2.34,6.25-3.6,10-11.13,2.07-4.45,4.2-9.36,6.34-13.59V625c.22-.45.46-.91.7-1.36a64.5,64.5,0,0,0,5.14-12.28C620.53,605.6,619.58,601.32,614,599.78Z"/><path class="cls-10" d="M625.8,627.18a53,53,0,0,1-3.44,11.13c-1.66,4.05-3.37,8.28-4.9,11.93-.94,2.17-1.82,4.17-2.6,5.82-1.58,3-2.58,5.45-3.76,5.08-1.9-.6-1.28-9.74-.44-15.07A144.31,144.31,0,0,1,613.28,625V625c.22-.45.46-.91.7-1.36a64.5,64.5,0,0,0,5.14-12.28c5.54,3.54,7.79,8.17,6.78,15.3C625.85,626.78,625.85,627,625.8,627.18Z"/><g class="cls-21"><path class="cls-12" d="M615.34,627.26c2.7-12.17,8.28-21.33,12.46-20.46s5.36,11.44,2.65,23.61-8.3,21.31-12.46,20.44S612.63,639.42,615.34,627.26Z"/></g><path class="cls-8" d="M625.8,627.18a53,53,0,0,1-3.44,11.13c-1.66,4.05-3.37,8.28-4.9,11.93-.94,2.17-1.82,4.17-2.6,5.82-1.58,3-2.58,5.45-3.76,5.08-1.9-.6-1.28-9.74-.44-15.07A144.31,144.31,0,0,1,613.28,625V625c.22-.45.46-.91.7-1.36a64.5,64.5,0,0,0,5.14-12.28c5.54,3.54,7.79,8.17,6.78,15.3C625.85,626.78,625.85,627,625.8,627.18Z"/><path class="cls-2" d="M573.52,114.85s.29-2.9.41-7.64H574c15.73-24.59,19.26,44.21-1.6,38.22A193.65,193.65,0,0,0,573.52,114.85Z"/><path class="cls-2" d="M436.05,116.3c2.39,14.19,5.08,28.23,7.91,41.32C444,157.62,415.32,113.17,436.05,116.3Z"/><path class="cls-10" d="M486,21.58c83.92-21.51,88.54,59.79,87.92,85.63-.12,4.74-.41,7.64-.41,7.64a193.65,193.65,0,0,1-1.14,30.58,157.58,157.58,0,0,1-3.54,19.68q-1.64,6.49-3.77,12.49c-6.8,18.66-29.78,48.38-46.77,51.74-15,3-38-9.92-51.31-21.73a58.1,58.1,0,0,1-4.74-4.57c-6.4-6.84-12.75-25.89-18.25-49-2.23-9.53-4.34-19.74-6.22-30.07-2.06-11.29-3.84-22.76-5.27-33.66C426.58,45.31,459.21,28.43,486,21.58Z"/><g class="cls-22"><path class="cls-12" d="M479.68-14.15C559-42,630.6-43.61,639.74-17.73S592,51.71,512.74,79.56s-150.93,29.45-160,3.57S400.41,13.7,479.68-14.15Z"/><path class="cls-12" d="M399,85.15C394.45,15.75,413-41.93,440.46-43.72s53.34,53,57.85,122.44-14.08,127.07-41.52,128.85S403.48,154.53,399,85.15Z"/><path class="cls-12" d="M417.52,145.9c-12.46-68.43-5.27-127,16.1-130.9s48.78,48.44,61.26,116.86,5.26,127-16.12,130.88S430,214.31,417.52,145.9Z"/><path class="cls-12" d="M395.52,285.91C383,217.49,427.19,152.19,494.15,140S625.56,173.48,638,241.9s-31.7,133.73-98.72,145.88S408,354.33,395.52,285.91Z"/><path class="cls-12" d="M517.28,116.39C504.8,48,526.63-13.28,566.05-20.44s81.5,42.5,94,110.92-9.37,129.68-48.81,136.83S529.74,184.81,517.28,116.39Z"/></g><path class="cls-8" d="M486,21.58c83.92-21.51,88.54,59.79,87.92,85.63-.12,4.74-.41,7.64-.41,7.64a193.65,193.65,0,0,1-1.14,30.58,157.58,157.58,0,0,1-3.54,19.68q-1.64,6.49-3.77,12.49c-6.8,18.66-29.78,48.38-46.77,51.74-15,3-38-9.92-51.31-21.73a58.1,58.1,0,0,1-4.74-4.57c-6.4-6.84-12.75-25.89-18.25-49-2.23-9.53-4.34-19.74-6.22-30.07-2.06-11.29-3.84-22.76-5.27-33.66C426.58,45.31,459.21,28.43,486,21.58Z"/></g><g id="Icons"><g id="baby"><path class="cls-23" d="M537.72,635.45c13.77-2.66,27.4,9.53,30.43,27.22s-5.68,34.2-19.45,36.87h0l-.3.05c-6.27,1.17-12.82-.74-18.34-5.35l-2.38-2-.07,3.5c-.1,6.15-3.86,12.59-10.58,18.15-7,5.81-16.67,10.07-27.15,12-10.84,2-18.92,1.08-24.7-2.85-4.63-3.15-7.83-8.27-10.09-16.12-.29-1-.55-2-.77-2.91-1.65-6.8-.95-8.78-.8-9.11.09-.17.15-.18.21-.2a1.76,1.76,0,0,1,1,.32,10.92,10.92,0,0,1,2.23,2,1.5,1.5,0,0,0,1.43.57,1.76,1.76,0,0,0,1.31-1.54,2.58,2.58,0,0,0-.65-2.2,15.12,15.12,0,0,0-3.09-2.51,13.39,13.39,0,0,0-10.08-1.6c-.6.11-1.21.23-1.94.43-.49.12-1,.23-1.47.32a9.5,9.5,0,0,1-3.84.18c-1.14-4.6-1.21-5-1.21-5.33a14.1,14.1,0,0,0-.2-1.59,4.24,4.24,0,0,1,2.72-4.44.58.58,0,0,1,.39,0,1.12,1.12,0,0,1,.14.48,2.15,2.15,0,0,0,2.56,1.93c2.65-.49,9.81-5.25,13.62-8a19.85,19.85,0,0,1,7.63-3.64c4.34-.81,6.91,1.4,8.77,3.4a2.36,2.36,0,0,0,0,.88,2,2,0,0,0,1.62,1.87l.44,0c.24,0,.53,0,.87,0a2,2,0,0,0,1.34.22,1.9,1.9,0,0,0,.9-.44c1-.12,2.1-.3,3.3-.52.56-.1,1.56-.17,2.45-.23.7,0,1.35-.09,1.85-.16,2.8.19,5.15.36,7,.53a19.42,19.42,0,0,0,3.48.34l1.43-.26-.15-1.84a2.12,2.12,0,0,0-1.67-2l-.6-.09c-.57-.07-1.39-.16-2.37-.24a12.48,12.48,0,0,1-4.12-1.24c-.27-1.63-.29-2.79,1.27-4.1a5.34,5.34,0,0,1,1.73-.49c4.63-.86,12.57-.58,13.84.25a5.66,5.66,0,0,1,2.3,2.85c0,.11-.25.64-1.39,1.22a30.3,30.3,0,0,0-2.89.95l1,4a15.66,15.66,0,0,0,3-1c.4-.1.79-.19,1.17-.26a10.43,10.43,0,0,1,8.83,2.13,16,16,0,0,0,2.84,2.28l.45.3.09.07,1.67-3.35-.21-.18-.64-.51c-.81-.66-1.58-1.28-2.36-1.86a8.09,8.09,0,0,1-.94-4.08,32.05,32.05,0,0,1,.91-7.75,50.54,50.54,0,0,1,6.85-16.27c2.43-3.66,6.39-8.22,11.42-9.15"/></g><g id="solar-plexus"><path class="cls-23" d="M534.2,602.52c-1.54-.81-9.11-4.1-9.11-4.1a11.81,11.81,0,0,0,6.17-5.64c1.4-2.87-.91-3.53-4.6-.83-2.89,2.1-6.77,2.85-9.56,1.42-6.84-3.52-14.94-1.39-17,1a14.4,14.4,0,0,0-3.38-3.82c1.74-5.71,7.2-13,11.33-13,3.84,0,12.18-1.68,12.18-3.43,0-3.34-2.37-2.32-5.94-1.86-2.81.37-3.07-5.49-3.25-6.62-.65-3.88-5.62-8.39-5.35-1.83.22,5.26,6.84,7.55-1.49,10.75-4.17,1.6-8.1,9.54-9.85,14.55a12.64,12.64,0,0,0-5.45-1.28c.64-3.91-3.45-11.26-5.87-16.92-1.22-2.88-2.13-5-1.49-7.09,2.13-3.2-4.45-13.67-4.31-1,0,2.87,1.28,5-2.33,5.92-3.42.83-6.62,2.66-7.48,5.18-2.13,5,9.23-1.17,10.26-1.37a14.51,14.51,0,0,1,6.88,16,13.19,13.19,0,0,0-4.74,2.94c-1.74-3.8-7.93-8-17.55-2.64-3.58,2-7.62,1.69-7.48-1.37.21-5.34-2.63-10.67-4-4.58,0,0-.37,8.47.91,9.15s-3.88-1.24-7.3-1.6c-4.39-.46-5.51,5.33-2.57,4.8s10.57,2.19,13.15.69c6.9-4,20.25-9.16,22.31-1.16a15.11,15.11,0,0,0-1.91,6.59c-3.85-1.6-12.26-1.34-14.89,5.35-2.71,6.91-7.48-1.23-10.74-.69s1.46,3.14,1.46,3.14l4.82,1.57a39.44,39.44,0,0,1-4.06,5.32c-2.66,2.71-1.35,3.5,1.56,2.25s8.1-8.57,8.1-8.57c2.05-4.56,6.73-7.64,13.82-5.88A14.16,14.16,0,0,0,485,616c.74,5.61-8,13.49-11.72,12.35a15.53,15.53,0,0,0-8.31,2.81c-4.49,3.31,9.16.53,9.16.53s1.43,2.59-2.13,5.58c-5.2,4.36-1.12,7.09-1.12,7.09.9.13,4.22-6.49,8.6-12.81,2.74-4,7.88-10.4,10.39-15a12.89,12.89,0,0,0,6.4-2.39,4.58,4.58,0,0,0,.74.5c15,8.35,6.85,12,3.84,15.09-3.73,3.45-4.56,7.86-.05,4.61,3.31-2.37,4.74-3.46,4.74-3.46s.62-2.14,4,3.82c5.34,9.5,7.59,4.7,5.08,0,0,0-7-4.35-5.2-8.59s-4.63-12.42-10.06-15A15.16,15.16,0,0,0,502,599.21c3.87-6.92,12.47-4.45,15.15-2.4,0,0,10,7.48,15.39,9.6S536.49,603.71,534.2,602.52ZM492.3,606a4.73,4.73,0,0,1-7,0,5.57,5.57,0,0,1,0-7.51,4.73,4.73,0,0,1,7,0,5.57,5.57,0,0,1,0,7.51Z"/></g><g id="lungs"><path id="lungs-bronchi" class="cls-24" d="M435.09,305.58s29.77-20.8,28.8,3-3.58,116.16-23.24,116c-22.29-.15-74.46,6-66.75-20S408.6,326,435.09,305.58ZM538.62,319s-24.11-27.79-28.62-4.49S486.79,428.13,505.9,433c21.66,5.55,70.86,24.85,69.36-2.36S559.63,345.62,538.62,319Zm-58.08-5.18-14.43,18.88-1.89,16.2,20.87-21.57,3.36,5.14,12.28,21.17,2.6-16.11-9.05-21.15,5.36-52.16-12.76-1.66Z"/></g><g id="heart"><path class="cls-25" d="M521.39,370.9c-19.55-19.62-34.17,3.4-36.69,7.79-1.86-4.73-13.05-29.8-35.17-13.49-7.38,5.44-20.53,30.83,2.84,56.92,5.62,6.26,17.47,17.34,23.42,25.43a33.77,33.77,0,0,1,3.43,5.29l.19.4.25-.36a32.76,32.76,0,0,1,4.14-4.7c7.08-7.06,20.32-16.13,26.75-21.45C537.32,404.63,528,377.45,521.39,370.9Z"/></g><g id="stomach"><g id="Layer_2" data-name="Layer 2" class="cls-26"><g id="Layer_2-2" data-name="Layer 2-2"><g id="stomach-2" data-name="stomach"><path class="cls-27" d="M455.34,532.53l7-.67c.61-.05,1-.74,1-1.55-.16-1.86,0-5,.95-5.79,3.26-2.57,14.78,4.91,24.71,4.81,12.14-.12,24.2-18.64,25.43-31s-1.16-32.63-16.82-37.19c-13.24-3.83-26.25,9.38-31.31,11.28-3.31,1.19-6.1-4.66-7.51-10.65a38.39,38.39,0,0,1-1.08-7.55,1.27,1.27,0,0,0-.78-1.45l-8.24.78a1.17,1.17,0,0,0-.83,1.34h0c1,5.18,4.47,21.73,7.46,26.61,3.51,5.78,7.61.31,13.14,12,2,5.93,4.37,15.5-9.7,19.29-7.24,2-5.26,14.5-4.65,18.57A1.25,1.25,0,0,0,455.34,532.53Z"/></g></g></g></g><g id="mouth"><g id="Layer_2-2-2" data-name="Layer 2" class="cls-26"><g id="Layer_1-2" data-name="Layer 1-2"><path class="cls-27" d="M491.86,181.26A24.18,24.18,0,0,1,513,173c8.17-2.65,17.65-.71,22,3C523.8,186.9,510.31,189.9,491.86,181.26Z"/><path class="cls-27" d="M494.4,180.63s37-3.78,38.54-4.83"/><path class="cls-27" d="M494.4,180.63c1.61-.24,3.21-.44,4.82-.7l4.82-.61c3.21-.42,6.43-.78,9.64-1.16l9.67-1.08c1.61-.17,3.21-.36,4.82-.56.81-.06,1.61-.18,2.41-.29l1.2-.18a5,5,0,0,0,1.16-.28,11.11,11.11,0,0,1-2.31.64c-.79.17-1.59.32-2.39.46-1.59.27-3.2.51-4.8.75-3.21.48-6.44.86-9.65,1.24s-6.46.71-9.69,1S497.64,180.45,494.4,180.63Z"/></g></g></g><g id="eyes"><path class="cls-23" d="M535.42,121.78a29.26,29.26,0,0,1-18.49-7.16c1.76-2.71,6.62-8.53,16.76-10.73a10.09,10.09,0,0,0-3.55,13.34,9.4,9.4,0,0,0,5.3,4.55Z"/><path class="cls-23" d="M542.75,121a10.06,10.06,0,0,0,4.13-12.13,3.46,3.46,0,0,1-4,2.87,3.63,3.63,0,0,1-2.73-4.26,3.5,3.5,0,0,1,3.6-2.94A9.23,9.23,0,0,0,541,103.1a29.32,29.32,0,0,1,18.49,7.16c-1.76,2.72-6.63,8.54-16.78,10.74Z"/><path class="cls-23" d="M486.85,116.93a9.48,9.48,0,0,0-6-6.14c10.36,0,16.24,4.63,18.49,6.91a30.06,30.06,0,0,1-16.72,11A10,10,0,0,0,486.85,116.93Z"/><path class="cls-23" d="M456.79,122.52a30.09,30.09,0,0,1,16.73-10.93,9.49,9.49,0,0,0-2.33,2,3.45,3.45,0,0,1,4.24,2.56,3.68,3.68,0,0,1-2.43,4.47,3.41,3.41,0,0,1-4.08-2.11,9.86,9.86,0,0,0,6.37,11c-10.35,0-16.25-4.62-18.5-6.9Z"/></g><g id="brain"><g class="cls-26"><path class="cls-27" d="M492,77.22a8,8,0,0,0-6.57-2c-4,.6-6.84,3.81-6.39,7.16l-1.23.19c-.49-3.6,2.12-7,6-8.24-.66-2.5-2.08-4.18-4-4.6a6.25,6.25,0,0,0-6.14,2.46c-.66.91-7.12,4.29-9.49,6A8.28,8.28,0,0,0,461,86a5.76,5.76,0,0,0,5.63,5.07,4.14,4.14,0,0,0,4.32-3.63l1.18.21a5.31,5.31,0,0,1-4.51,4.58,7.4,7.4,0,0,1-1,.08,7,7,0,0,1-6.81-6.14,9.64,9.64,0,0,1,3.7-9.1,8.4,8.4,0,0,1,8.2-.74,5.88,5.88,0,0,1,1-5,7.52,7.52,0,0,1,2.45-2.14c-2.38-2.79-2.77-6-1-8.87s4.92-4.06,7.36-3.11L481,58.43c-1.93-.75-4.52.4-5.95,2.62-.73,1.17-2.06,4.21,1.16,7.69a6.89,6.89,0,0,1,3.77-.27c1.43.34,3.88,1.54,4.95,5.56l.28,0a9.06,9.06,0,0,1,7.56,2.33,12.92,12.92,0,0,1,2.95,4.16l-1.83-13.61c-1.05-7.81-3.68-8.72-3.7-8.73l-.75-.23.4-.71a6.41,6.41,0,0,0,0-7.07,10.66,10.66,0,0,0-10.14-4.67c-3.39.51-5.9,3-6.95,7l-.29,1.18-.73-1c-1.27-1.64-2.75-2.43-4.28-2.2-2.25.34-4,2.82-3.86,5.52l0,1-.87-.37a4.82,4.82,0,0,0-2.63-.29,6.47,6.47,0,0,0-4.52,3,6.66,6.66,0,0,0-.5,5.77l.22.73-1,.12a8,8,0,0,0-5.47,3.84,9.65,9.65,0,0,0-1.11,7.81l.23.78h-.06c1,3.64,5.45,4.12,5.51,4.12l2.91.27s-8,2.68-4.82.55c-2.76-1-4.53-2.75-4.85-4.85a4.89,4.89,0,0,0-3.94,2.91c-.86,2-.45,4.41,1,6.72l.24.37-.26.36c-1.79,2.56-2,5.32-.68,7.69a6,6,0,0,0,6.2,3.11c1.27-.19,4.82-2.5,4.82-2.5L454,98.43a14.57,14.57,0,0,0,8.52.86c5.88-.88,14.14-1.94,14.7-2,1.36-.33,5-1.57,4.81-3.26l-.27-2,1.35,1.45c1.31,1.27,3.77,1.85,6.34,1.48h0a7.82,7.82,0,0,0,5.23-2.86,8.56,8.56,0,0,0,1.68-5C495.7,82.67,494.2,79.25,492,77.22Zm-35.59-.8-1.2,0c-.19-1.93.95-4,3.13-5.55a7.56,7.56,0,0,1,7.3-.7,1.71,1.71,0,0,1,.23.13l-.54,1.1a6.3,6.3,0,0,0-6.11.38L459,72C457.18,73.26,456.25,74.87,456.37,76.42Z"/><path class="cls-27" d="M508.42,85.13a8.24,8.24,0,0,0,2.93,4.28,7.58,7.58,0,0,0,5.77,1.21h0c2.56-.41,4.77-1.68,5.69-3.28l.88-1.79.27,2c.22,1.69,4.11,1.8,5.48,1.71.55-.08,8.76-1.5,14.65-2.38,5.62-.84,7.27-2.13,7.76-2.83a1,1,0,0,0,.21-.5l-.39-1.24,1.17.47a8.19,8.19,0,0,0,4.12.54,6.23,6.23,0,0,0,5.13-4.81,6.85,6.85,0,0,0-2.68-7.18l-.35-.26.13-.43c.83-2.65.54-5.11-.81-6.75a4.85,4.85,0,0,0-4.56-1.71c.13,3-1,7.15-5.19,7l-2.93-.07L548.43,68c.05,0,4.22-1.78,4.21-5.57h-.07l0-.81a9.47,9.47,0,0,0-3.07-7.17,7.7,7.7,0,0,0-6.26-2.07l-1,.18,0-.76a6.64,6.64,0,0,0-2-5.4,6.29,6.29,0,0,0-5.15-1.59,5,5,0,0,0-2.44,1.05l-.74.61-.22-1c-.6-2.63-2.92-4.5-5.17-4.16-1.53.23-2.77,1.42-3.53,3.37l-.44,1.15-.63-1c-2.14-3.47-5.13-5.13-8.52-4.62a11.12,11.12,0,0,0-8.52,7.47,6.35,6.35,0,0,0,1.89,6.81l.58.57-.66.44s-2.3,1.65-1.25,9.47l1.83,13.56A13.43,13.43,0,0,1,509,73.69a9.39,9.39,0,0,1,6.64-4.46l.28,0c-.07-4.17,2-6,3.28-6.79a6.82,6.82,0,0,1,3.66-.8c2.17-4.28.13-6.83-.92-7.73-1.93-1.72-4.73-2.06-6.4-.77l-.72-1c2.09-1.61,5.55-1.26,7.89.82s2.92,5.42,1.37,8.82A7.3,7.3,0,0,1,527,63.08a5.73,5.73,0,0,1,2.3,4.46,8.36,8.36,0,0,1,8.06-1.69,9.29,9.29,0,0,1,6,7.65,7.23,7.23,0,0,1-4.91,7.89,6.86,6.86,0,0,1-1,.23,5.12,5.12,0,0,1-5.55-3.07l1.08-.55A4.06,4.06,0,0,0,538,80.22a6,6,0,0,0,4.07-6.53A8.12,8.12,0,0,0,537,67c-2.66-.94-9.82-2.27-10.7-3a6.11,6.11,0,0,0-6.54-.56c-1.77,1-2.75,3-2.66,5.61,4,0,7.45,2.54,7.94,6.14l-1.2.18c-.45-3.35-4.06-5.59-8-5A8.17,8.17,0,0,0,510,74.35C508.39,77,507.85,80.68,508.42,85.13Zm31.91-25.5a6.37,6.37,0,0,0-6.05,1.19,1.62,1.62,0,0,0-.18.19l-.82-.9a7.53,7.53,0,0,1,7.11-1.76l.28.09c2.5.89,4.13,2.48,4.47,4.37L544,63.1C543.67,61.59,542.35,60.33,540.33,59.63Z"/></g></g><path id="left-hand" class="cls-27" d="M317.49,629.75l-24.87,30s-12.11,14.47,37.89,17.87,52.65,18.27,52.65,18.27,20.23,11,5.29-5.44-26.6-23.34-26.6-23.34,12.53-.68,32.1,14.12,28.83,16.83,12.2-.19-24.58-23.74-24.58-23.74,22.38,7.56,28.66,14.14,15.79,2.66,4.54-7.87S388,643.4,384.25,641.2s31.27,5.33,34.27,11.06,15.75-.79-8.62-15a66.92,66.92,0,0,0-48.79-7.48C359.52,630,320.45,633.5,317.49,629.75Z"/></g></g></svg>