<svg xmlns="http://www.w3.org/2000/svg" viewBox="0 0 43.44 19.55"><defs><style>.cls-1{fill:#1a1a1a;}.cls-2{fill:#fff;}</style></defs><g id="Layer_2" data-name="Layer 2"><g id="Layer_1-2" data-name="Layer 1"><path class="cls-1" d="M0,10S8.36-2.95,21.75.91C30.1-1.84,39.42,2,43.44,7.73,31.47,21.69,17.77,24.31,0,10Z"/><path class="cls-1" d="M2.59,9.42s37.26-.94,38.85-2.23"/><path class="cls-2" d="M2.59,9.42C4.21,9.27,5.83,9.17,7.45,9l4.86-.29c3.24-.2,6.48-.33,9.72-.48l9.73-.38q2.43-.08,4.86-.21c.81,0,1.62-.07,2.43-.13l1.21-.11a4,4,0,0,0,1.18-.25,8.31,8.31,0,0,1-2.36.62c-.8.14-1.61.26-2.42.36-1.61.19-3.23.34-4.85.49-3.24.29-6.49.45-9.73.6s-6.5.24-9.75.25S5.84,9.55,2.59,9.42Z"/></g></g></svg>