<svg xmlns="http://www.w3.org/2000/svg" viewBox="0 0 44.17 14.34"><defs><style>.cls-1{fill:#707070;stroke:#fff;stroke-miterlimit:10;stroke-width:0.5px;}</style></defs><g id="Layer_2" data-name="Layer 2"><g id="Layer_1-2" data-name="Layer 1"><g id="Layer_1-2-2" data-name="Layer 1-2"><path class="cls-1" d="M.4,7.21A24.17,24.17,0,0,1,22.2.87C30.57-1,39.84,1.73,43.8,5.81,31.71,15.66,18,17.45.4,7.21Z"/><path class="cls-1" d="M3,6.81S40.2,6.33,41.8,5.42"/><path class="cls-1" d="M3,6.81c1.62-.1,3.24-.16,4.85-.27l4.86-.19c3.24-.12,6.47-.2,9.71-.29l9.72-.22L37,5.72c.81,0,1.62,0,2.42-.08l1.21-.08a5,5,0,0,0,1.18-.17,10.81,10.81,0,0,1-2.36.43c-.8.1-1.61.18-2.42.24-1.61.13-3.23.23-4.85.33-3.23.19-6.48.29-9.72.38s-6.49.13-9.74.12S6.23,6.92,3,6.81Z"/></g></g></g></svg>