<svg id="Layer_1" data-name="Layer 1" xmlns="http://www.w3.org/2000/svg" viewBox="0 0 170.87 499.83"><defs><style>.cls-1{fill:#d5aae5;stroke:#000;stroke-miterlimit:10;}</style></defs><path class="cls-1" d="M85.43,499.18c-25.57,2.48-12.37-28-12.37-28,4.4-8.53-1.38-28.88-1.38-28.88-13.74-26.76-8.43-97.89-8.43-97.89-49.13-83.59-3.39-139.14-3.39-139.14V190.38c-15.67-18.15-13.75-42.89-13.75-42.89C45.29,150,26.86,167,26.86,167c-3.71,3.3,3.85,12.1,3.85,12.1l27.78,38.77c-6.88,4.12-12.93,25.3-12.93,25.3a139.55,139.55,0,0,1-3.08-26.4L4.59,179.11C-2.74,172.78,2,165.45,2,165.45l25.39-37.21c3.3-6.88,33.83-22.55,33.83-22.55,15.39-7.7,15.21-27.5,15.21-27.5v-.92h18v.92s-.19,19.8,15.21,27.5c0,0,30.53,15.67,33.83,22.55l25.38,37.21s4.77,7.33-2.56,13.66l-37.89,37.67a139.55,139.55,0,0,1-3.08,26.4s-6-21.18-12.93-25.3l27.78-38.77s7.56-8.8,3.85-12.1c0,0-18.43-17-19.25-19.52,0,0,1.92,24.74-13.75,42.89v14.85s45.73,55.55-3.39,139.14c0,0,5.31,71.13-8.44,97.89,0,0-5.77,20.35-1.37,28.88C97.81,471.14,111,501.66,85.43,499.18Z"/><path class="cls-1" d="M91.42,9.26s25.47-11,27.12,18.7c0,0,.37,44,21.27,49.5,0,0-7.52,2.89-16.73-4.81,0,0-.82,12.1,17.6,15,0,0-23.63,3.72-39.76-16.44H69.32S44.85,96.43,30.19,87c0,0,17.59-6.23,20.53-19.06,0,0-11,4.85-13.43,2.52,0,0,16.09-9.22,15.53-25.71,0,0-6.32-39.33,23.93-44C76.75.74,91.51-1.74,91.42,9.26Z"/><path class="cls-1" d="M63.77,46.11C63.77,65.92,73.47,82,85.43,82S107.1,65.92,107.1,46.11,97.4,10.22,85.43,10.22,63.77,26.29,63.77,46.11Z"/></svg>