<svg xmlns="http://www.w3.org/2000/svg" viewBox="0 0 96.09 87.73"><defs><style>.cls-1{fill:#707070;opacity:0.7;}</style></defs><g id="Layer_2" data-name="Layer 2"><g id="Layer_1-2" data-name="Layer 1"><path class="cls-1" d="M94.05,45.88c-1.54-.8-9.11-4.1-9.11-4.1a11.79,11.79,0,0,0,6.17-5.63c1.4-2.87-.9-3.53-4.6-.84-2.88,2.11-6.76,2.86-9.56,1.43-6.84-3.52-14.93-1.39-17,1a14.11,14.11,0,0,0-3.39-3.82c1.74-5.72,7.2-13,11.33-13,3.85,0,12.18-1.68,12.18-3.44,0-3.33-2.36-2.31-5.94-1.85-2.81.37-3.06-5.49-3.25-6.62-.64-3.89-5.61-8.39-5.34-1.83.21,5.26,6.84,7.55-1.5,10.75-4.17,1.6-8.09,9.54-9.85,14.54a12.63,12.63,0,0,0-5.45-1.27c.65-3.91-3.44-11.27-5.86-16.93-1.23-2.87-2.14-5-1.5-7.09,2.14-3.2-4.44-13.66-4.31-1,0,2.86,1.29,5-2.32,5.92-3.42.83-6.63,2.66-7.48,5.18-2.14,5,9.22-1.17,10.26-1.38a14.52,14.52,0,0,1,6.87,16.06,13.15,13.15,0,0,0-4.73,2.94c-1.74-3.8-7.94-8-17.56-2.64-3.57,2-7.62,1.69-7.48-1.38.21-5.33-2.63-10.66-4-4.57,0,0-.36,8.46.92,9.15s-3.89-1.25-7.31-1.6c-4.38-.46-5.5,5.33-2.56,4.8s10.56,2.19,13.15.69c6.9-4,20.24-9.17,22.3-1.16a15.24,15.24,0,0,0-1.91,6.58C31.34,43.07,22.93,43.34,20.3,50c-2.72,6.92-7.49-1.22-10.75-.68S11,52.48,11,52.48l4.82,1.57a39.18,39.18,0,0,1-4.06,5.32c-2.65,2.7-1.35,3.49,1.57,2.25S21.44,53,21.44,53c2-4.55,6.72-7.63,13.81-5.88a14.2,14.2,0,0,0,9.62,12.21c.73,5.6-8,13.49-11.73,12.35a15.53,15.53,0,0,0-8.31,2.81c-4.49,3.31,9.17.52,9.17.52s1.43,2.59-2.14,5.59c-5.2,4.35-1.11,7.09-1.11,7.09.89.13,4.21-6.49,8.59-12.81,2.74-4,7.88-10.4,10.39-15a12.89,12.89,0,0,0,6.41-2.39,4.44,4.44,0,0,0,.73.49c15,8.35,6.85,12,3.85,15.1-3.73,3.44-4.56,7.85,0,4.61,3.3-2.37,4.74-3.46,4.74-3.46s.61-2.14,4,3.82c5.35,9.5,7.59,4.7,5.08,0,0,0-7-4.36-5.19-8.59S64.62,57,59.2,54.47a15.22,15.22,0,0,0,2.61-11.9c3.87-6.91,12.46-4.44,15.14-2.4,0,0,10,7.49,15.39,9.61S96.34,47.08,94.05,45.88ZM52.16,49.31a4.73,4.73,0,0,1-7,0,5.58,5.58,0,0,1,0-7.5,4.74,4.74,0,0,1,7,0,5.58,5.58,0,0,1,0,7.5Z"/></g></g></svg>