<svg xmlns="http://www.w3.org/2000/svg" viewBox="0 0 65.83 80.72"><defs><style>.cls-1{opacity:0.7;}.cls-2{fill:#707070;stroke:#707070;stroke-miterlimit:10;}</style></defs><g id="Layer_2" data-name="Layer 2"><g id="Layer_1-2" data-name="Layer 1"><g id="Layer_2-2" data-name="Layer 2" class="cls-1"><g id="Layer_2-2-2" data-name="Layer 2-2"><g id="stomach"><path class="cls-2" d="M1.64,79.73l7.05.09c.61,0,1.1-.63,1.19-1.43,0-1.87.5-4.94,1.57-5.65C15,70.53,25.62,79.2,35.5,80.16c12.08,1.18,26.05-15.94,28.6-28.09S66.44,19.5,51.36,13.29C38.61,8.06,24.26,19.8,19,21.15c-3.42.83-5.56-5.29-6.33-11.39a39.61,39.61,0,0,1-.26-7.62A1.28,1.28,0,0,0,11.81.6L3.54.5a1.19,1.19,0,0,0-1,1.25h0C3,7,4.68,23.82,7.14,29c2.86,6.13,7.53,1.12,11.77,13.36C20.3,48.47,21.6,58.24,7.2,60.49-.2,61.66.42,74.35.58,78.46A1.25,1.25,0,0,0,1.64,79.73Z"/></g></g></g></g></g></svg>